<svg width="49" height="48" viewBox="0 0 49 48" fill="none" xmlns="http://www.w3.org/2000/svg">
<path d="M9.41309 9H24.1302V23.8571H9.41309V9Z" fill="#333333"/>
<path fill-rule="evenodd" clip-rule="evenodd" d="M8.41309 9C8.41309 8.44772 8.8608 8 9.41309 8H24.1302C24.6825 8 25.1302 8.44772 25.1302 9V23.8571C25.1302 24.4094 24.6825 24.8571 24.1302 24.8571H9.41309C8.8608 24.8571 8.41309 24.4094 8.41309 23.8571V9ZM10.4131 10V22.8571H23.1302V10H10.4131Z" fill="#333333"/>
<path fill-rule="evenodd" clip-rule="evenodd" d="M15.772 16.4287C15.772 15.8764 16.2197 15.4287 16.772 15.4287H31.4891C32.0413 15.4287 32.4891 15.8764 32.4891 16.4287V31.2859C32.4891 31.8381 32.0413 32.2859 31.4891 32.2859H16.772C16.2197 32.2859 15.772 31.8381 15.772 31.2859V16.4287ZM17.772 17.4287V30.2859H30.4891V17.4287H17.772Z" fill="#333333"/>
<path fill-rule="evenodd" clip-rule="evenodd" d="M30.4888 24.1426C30.4888 23.5903 30.9365 23.1426 31.4888 23.1426H39.4134C39.9657 23.1426 40.4134 23.5903 40.4134 24.1426V38.9997C40.4134 39.552 39.9657 39.9997 39.4134 39.9997H24.6963C24.144 39.9997 23.6963 39.552 23.6963 38.9997V31.2854C23.6963 30.7332 24.144 30.2854 24.6963 30.2854H30.4888V24.1426ZM32.4888 25.1426V31.2854C32.4888 31.8377 32.0411 32.2854 31.4888 32.2854H25.6963V37.9997H38.4134V25.1426H32.4888Z" fill="#333333"/>
</svg>
