<svg width="48" height="48" viewBox="0 0 48 48" fill="none" xmlns="http://www.w3.org/2000/svg">
<mask id="path-1-inside-1" fill="white">
<rect x="13" y="7.2" width="27.6" height="27.6" rx="1"/>
</mask>
<rect x="13" y="7.2" width="27.6" height="27.6" rx="1" stroke="#333333" stroke-width="4" stroke-linecap="round" mask="url(#path-1-inside-1)"/>
<path d="M9.76 38.54H34.1V40.3H8C7.72386 40.3 7.5 40.0761 7.5 39.8V13.7H9.26V38.04V38.54H9.76Z" fill="#333333" stroke="#333333"/>
<path d="M26.8 12C23.1511 12 20.2 14.817 20.2 18.3C20.2 23.025 26.8 30 26.8 30C26.8 30 33.4 23.025 33.4 18.3C33.4 14.817 30.4488 12 26.8 12ZM26.8 20.55C25.4988 20.55 24.4428 19.542 24.4428 18.3C24.4428 17.058 25.4988 16.05 26.8 16.05C28.1011 16.05 29.1571 17.058 29.1571 18.3C29.1571 19.542 28.1011 20.55 26.8 20.55Z" fill="#333333"/>
</svg>
