<svg width="49" height="48" viewBox="0 0 49 48" fill="none" xmlns="http://www.w3.org/2000/svg">
<path fill-rule="evenodd" clip-rule="evenodd" d="M10.6543 26.9999C11.2066 26.9999 11.6543 27.4476 11.6543 27.9999V35.9999H37.6543V27.9999C37.6543 27.4476 38.102 26.9999 38.6543 26.9999C39.2066 26.9999 39.6543 27.4476 39.6543 27.9999V36.9999C39.6543 37.5522 39.2066 37.9999 38.6543 37.9999H10.6543C10.102 37.9999 9.6543 37.5522 9.6543 36.9999V27.9999C9.6543 27.4476 10.102 26.9999 10.6543 26.9999Z" fill="#333333"/>
<path fill-rule="evenodd" clip-rule="evenodd" d="M24.1543 32C23.8529 32 23.5677 31.8641 23.3778 31.6301L14.8778 21.1546C14.6348 20.8552 14.5857 20.4427 14.7515 20.0945C14.9174 19.7463 15.2687 19.5245 15.6543 19.5245H18.7771L18.7771 11C18.7771 10.4477 19.2248 10 19.7771 10L28.5316 10C29.0838 10 29.5316 10.4477 29.5316 11V19.5245H32.6543C33.04 19.5245 33.3912 19.7463 33.5571 20.0945C33.723 20.4427 33.6738 20.8552 33.4308 21.1546L24.9308 31.6301C24.7409 31.8641 24.4557 32 24.1543 32ZM30.5551 21.5245H28.5316C27.9793 21.5245 27.5316 21.0768 27.5316 20.5245V12L20.7771 12L20.7771 20.5245C20.7771 21.0768 20.3293 21.5245 19.7771 21.5245H17.7535L24.1543 29.4129L30.5551 21.5245Z" fill="#333333"/>
</svg>
