<svg width="49" height="48" viewBox="0 0 49 48" fill="none" xmlns="http://www.w3.org/2000/svg">
<path fill-rule="evenodd" clip-rule="evenodd" d="M39.7753 30.8886C40.1658 31.2791 40.1658 31.9123 39.7753 32.3028L33.1883 38.8898C32.7978 39.2804 32.1646 39.2804 31.7741 38.8898L8.35256 15.4683C7.96203 15.0778 7.96203 14.4446 8.35256 14.0541L14.9396 7.46708C15.3301 7.07656 15.9633 7.07656 16.3538 7.46708L39.7753 30.8886ZM37.654 31.5957L15.6467 9.5884L10.4739 14.7612L32.4812 36.7685L37.654 31.5957Z" fill="#333333"/>
<path fill-rule="evenodd" clip-rule="evenodd" d="M11.6981 17.3996L13.9287 15.1689L15.3429 16.5832L13.1123 18.8138L11.6981 17.3996Z" fill="#333333"/>
<path fill-rule="evenodd" clip-rule="evenodd" d="M22.8514 28.5529L25.082 26.3223L26.4962 27.7365L24.2656 29.9671L22.8514 28.5529Z" fill="#333333"/>
<path fill-rule="evenodd" clip-rule="evenodd" d="M17.2743 22.9767L19.5049 20.7461L20.9191 22.1603L18.6885 24.3909L17.2743 22.9767Z" fill="#333333"/>
<path fill-rule="evenodd" clip-rule="evenodd" d="M28.4276 34.1291L30.6582 31.8984L32.0724 33.3127L29.8418 35.5433L28.4276 34.1291Z" fill="#333333"/>
<path fill-rule="evenodd" clip-rule="evenodd" d="M14.4856 20.1887L17.8315 16.8428L19.2458 18.257L15.8998 21.6029L14.4856 20.1887Z" fill="#333333"/>
<path fill-rule="evenodd" clip-rule="evenodd" d="M20.0618 25.7649L23.4077 22.4189L24.8219 23.8332L21.476 27.1791L20.0618 25.7649Z" fill="#333333"/>
<path fill-rule="evenodd" clip-rule="evenodd" d="M25.6389 31.341L28.9849 27.9951L30.3991 29.4093L27.0531 32.7553L25.6389 31.341Z" fill="#333333"/>
<path fill-rule="evenodd" clip-rule="evenodd" d="M35.6759 11.5653C34.4885 10.3779 32.5633 10.3779 31.3759 11.5653C30.1885 12.7528 30.1885 14.6779 31.3759 15.8654C32.5633 17.0528 34.4885 17.0528 35.6759 15.8654C36.8633 14.6779 36.8633 12.7528 35.6759 11.5653ZM29.9617 10.1511C31.9301 8.18267 35.1216 8.18267 37.0901 10.1511C39.0586 12.1196 39.0586 15.3111 37.0901 17.2796C35.1216 19.248 31.9301 19.248 29.9617 17.2796C27.9932 15.3111 27.9932 12.1196 29.9617 10.1511Z" fill="#333333"/>
<path fill-rule="evenodd" clip-rule="evenodd" d="M29.9599 10.1505C30.3504 9.75994 30.9836 9.75994 31.3741 10.1505L37.0883 15.8647C37.4788 16.2552 37.4788 16.8884 37.0883 17.2789L30.9274 23.4398C30.7399 23.6274 30.4855 23.7327 30.2203 23.7327C29.9551 23.7327 29.7007 23.6274 29.5132 23.4398L23.799 17.7256C23.4084 17.3351 23.4084 16.7019 23.799 16.3114L29.9599 10.1505ZM30.667 12.2718L25.9203 17.0185L30.2203 21.3185L34.967 16.5718L30.667 12.2718Z" fill="#333333"/>
<path fill-rule="evenodd" clip-rule="evenodd" d="M17.1928 22.919C17.5833 22.5285 18.2165 22.5285 18.607 22.919L24.3212 28.6332C24.7118 29.0238 24.7118 29.6569 24.3212 30.0475L19.3756 34.9931C19.1881 35.1806 18.9337 35.286 18.6685 35.286C18.4033 35.286 18.149 35.1806 17.9614 34.9931L12.2472 29.2788C11.8567 28.8883 11.8567 28.2551 12.2472 27.8646L17.1928 22.919ZM17.8999 25.0403L14.3685 28.5717L18.6685 32.8717L22.1999 29.3404L17.8999 25.0403Z" fill="#333333"/>
<path fill-rule="evenodd" clip-rule="evenodd" d="M12.7239 27.5982C13.0612 27.5186 13.4157 27.6193 13.6607 27.8643L19.3749 33.5786C19.62 33.8236 19.7207 34.1781 19.6411 34.5154C19.5615 34.8527 19.3129 35.1248 18.9841 35.2343L10.4127 38.0915C10.0534 38.2112 9.65723 38.1177 9.38939 37.8499C9.12156 37.5821 9.02804 37.1859 9.14782 36.8266L12.0049 28.2552C12.1145 27.9264 12.3866 27.6778 12.7239 27.5982ZM13.3906 30.4227L11.6776 35.5616L16.8166 33.8487L13.3906 30.4227Z" fill="#333333"/>
</svg>
