<svg width="40" height="40" viewBox="0 0 40 40" fill="none" xmlns="http://www.w3.org/2000/svg">
<rect width="40" height="40" rx="20" fill="#BF0909"/>
<path d="M12.8574 26.428C12.8574 25.8597 13.0808 25.3146 13.4785 24.9128C13.8762 24.5109 14.4156 24.2852 14.978 24.2852H26.4288" stroke="white" stroke-width="2" stroke-linecap="round" stroke-linejoin="round"/>
<path d="M14.978 12.1426H26.4288V28.5711H14.978C14.4156 28.5711 13.8762 28.3548 13.4785 27.9697C13.0808 27.5846 12.8574 27.0622 12.8574 26.5176V14.1961C12.8574 13.6515 13.0808 13.1292 13.4785 12.7441C13.8762 12.3589 14.4156 12.1426 14.978 12.1426V12.1426Z" stroke="white" stroke-width="2" stroke-linecap="round" stroke-linejoin="round"/>
<path d="M23.5709 17.1426L21.428 15.7537L19.2852 17.1426V12.6981C19.2852 12.5508 19.3497 12.4095 19.4645 12.3053C19.5793 12.2011 19.735 12.1426 19.8974 12.1426H22.9586C23.121 12.1426 23.2767 12.2011 23.3915 12.3053C23.5064 12.4095 23.5709 12.5508 23.5709 12.6981V17.1426Z" fill="white" stroke="white" stroke-width="2" stroke-linecap="round" stroke-linejoin="round"/>
</svg>
