<svg width="49" height="48" viewBox="0 0 49 48" fill="none" xmlns="http://www.w3.org/2000/svg">
<path d="M33.5674 17V23L24.0674 22.9211L14.5674 23V17H11.0674V35H14.5674V31H33.5674V35H37.0674V17H33.5674Z" fill="#333333"/>
<path fill-rule="evenodd" clip-rule="evenodd" d="M17.0674 10C17.0674 9.44772 17.5151 9 18.0674 9H30.0674C30.6197 9 31.0674 9.44772 31.0674 10V20C31.0674 20.5523 30.6197 21 30.0674 21H18.0674C17.5151 21 17.0674 20.5523 17.0674 20V10ZM19.0674 11V19H29.0674V11H19.0674Z" fill="#333333"/>
<path fill-rule="evenodd" clip-rule="evenodd" d="M17.0674 34C17.0674 33.4477 17.5151 33 18.0674 33H30.0674C30.6197 33 31.0674 33.4477 31.0674 34V38C31.0674 38.5523 30.6197 39 30.0674 39H18.0674C17.5151 39 17.0674 38.5523 17.0674 38V34ZM19.0674 35V37H29.0674V35H19.0674Z" fill="#333333"/>
</svg>
