<svg width="49" height="48" viewBox="0 0 49 48" fill="none" xmlns="http://www.w3.org/2000/svg">
<path fill-rule="evenodd" clip-rule="evenodd" d="M33.3029 36C35.0583 36 36.4814 34.5769 36.4814 32.8214C36.4814 31.066 35.0583 29.6429 33.3029 29.6429C31.5474 29.6429 30.1243 31.066 30.1243 32.8214C30.1243 34.5769 31.5474 36 33.3029 36ZM38.4814 32.8214C38.4814 35.6815 36.1629 38 33.3029 38C30.4428 38 28.1243 35.6815 28.1243 32.8214C28.1243 29.9614 30.4428 27.6429 33.3029 27.6429C36.1629 27.6429 38.4814 29.9614 38.4814 32.8214Z" fill="#333333"/>
<path fill-rule="evenodd" clip-rule="evenodd" d="M33.3029 18.3571C35.0583 18.3571 36.4814 16.934 36.4814 15.1786C36.4814 13.4231 35.0583 12 33.3029 12C31.5474 12 30.1243 13.4231 30.1243 15.1786C30.1243 16.934 31.5474 18.3571 33.3029 18.3571ZM38.4814 15.1786C38.4814 18.0386 36.1629 20.3571 33.3029 20.3571C30.4428 20.3571 28.1243 18.0386 28.1243 15.1786C28.1243 12.3185 30.4428 10 33.3029 10C36.1629 10 38.4814 12.3185 38.4814 15.1786Z" fill="#333333"/>
<path fill-rule="evenodd" clip-rule="evenodd" d="M15.66 26.7143C17.4155 26.7143 18.8386 25.2912 18.8386 23.5357C18.8386 21.7802 17.4155 20.3571 15.66 20.3571C13.9045 20.3571 12.4814 21.7802 12.4814 23.5357C12.4814 25.2912 13.9045 26.7143 15.66 26.7143ZM20.8386 23.5357C20.8386 26.3958 18.5201 28.7143 15.66 28.7143C12.8 28.7143 10.4814 26.3958 10.4814 23.5357C10.4814 20.6757 12.8 18.3571 15.66 18.3571C18.5201 18.3571 20.8386 20.6757 20.8386 23.5357Z" fill="#333333"/>
<path fill-rule="evenodd" clip-rule="evenodd" d="M30.0187 30.9472C29.7717 31.4412 29.1711 31.6414 28.6771 31.3944L19.3914 26.7516C18.8974 26.5046 18.6972 25.9039 18.9442 25.4099C19.1911 24.916 19.7918 24.7157 20.2858 24.9627L29.5715 29.6056C30.0655 29.8526 30.2657 30.4532 30.0187 30.9472Z" fill="#333333"/>
<path fill-rule="evenodd" clip-rule="evenodd" d="M18.9442 22.5901C18.6972 22.0961 18.8974 21.4954 19.3914 21.2484L28.6771 16.6056C29.1711 16.3586 29.7717 16.5588 30.0187 17.0528C30.2657 17.5468 30.0655 18.1474 29.5715 18.3944L20.2858 23.0373C19.7918 23.2843 19.1911 23.0841 18.9442 22.5901Z" fill="#333333"/>
</svg>
