<svg width="49" height="48" viewBox="0 0 49 48" fill="none" xmlns="http://www.w3.org/2000/svg">
<path fill-rule="evenodd" clip-rule="evenodd" d="M10.8271 27C11.3794 27 11.8271 27.4477 11.8271 28V36H37.8271V28C37.8271 27.4477 38.2749 27 38.8271 27C39.3794 27 39.8271 27.4477 39.8271 28V37C39.8271 37.5523 39.3794 38 38.8271 38H10.8271C10.2749 38 9.82715 37.5523 9.82715 37V28C9.82715 27.4477 10.2749 27 10.8271 27Z" fill="#333333"/>
<path fill-rule="evenodd" clip-rule="evenodd" d="M24.3267 10C24.628 10 24.9133 10.1359 25.1032 10.3699L33.6032 20.8454C33.8462 21.1448 33.8953 21.5573 33.7295 21.9055C33.5636 22.2537 33.2123 22.4755 32.8267 22.4755H29.7039V31C29.7039 31.5523 29.2562 32 28.7039 32H19.9494C19.3971 32 18.9494 31.5523 18.9494 31V22.4755H15.8267C15.441 22.4755 15.0897 22.2537 14.9239 21.9055C14.758 21.5573 14.8071 21.1448 15.0501 20.8454L23.5501 10.3699C23.74 10.1359 24.0253 10 24.3267 10ZM17.9259 20.4755H19.9494C20.5017 20.4755 20.9494 20.9232 20.9494 21.4755V30H27.7039V21.4755C27.7039 20.9232 28.1516 20.4755 28.7039 20.4755H30.7275L24.3267 12.5871L17.9259 20.4755Z" fill="#333333"/>
</svg>
