<svg width="41" height="40" viewBox="0 0 41 40" fill="none" xmlns="http://www.w3.org/2000/svg">
<path d="M40.8271 0H0.827148V40H40.8271V0Z" fill="#333333"/>
<path fill-rule="evenodd" clip-rule="evenodd" d="M19.9886 7.74345C20.3006 7.43212 20.8011 7.41758 21.1306 7.71028L25.7853 11.8445V9.11111C25.7853 8.65087 26.1583 8.27778 26.6186 8.27778H30.6975C31.1577 8.27778 31.5308 8.65087 31.5308 9.11111V17.5309L34.7544 20.8038C34.9901 21.0431 35.0591 21.4005 34.9294 21.7104C34.7996 22.0202 34.4966 22.2219 34.1607 22.2219H31.5308V31.6667C31.5308 32.1269 31.1577 32.5 30.6975 32.5H23.7326C23.2723 32.5 22.8993 32.1269 22.8993 31.6667V26.9745H18.2937V31.6667C18.2937 32.1269 17.9206 32.5 17.4603 32.5H10.9572C10.497 32.5 10.1239 32.1269 10.1239 31.6667V22.2219H7.494C7.15679 22.2219 6.85281 22.0187 6.72393 21.707C6.59505 21.3954 6.66668 21.0369 6.90538 20.7987L19.9886 7.74345ZM20.6104 9.47743L9.5089 20.5552H10.9572C11.4174 20.5552 11.7905 20.9283 11.7905 21.3886V30.8333H16.627V26.1412C16.627 25.681 17.0001 25.3079 17.4603 25.3079H23.7326C24.1928 25.3079 24.5659 25.681 24.5659 26.1412V30.8333H29.8641V21.3886C29.8641 20.9283 30.2372 20.5552 30.6975 20.5552H32.1702L30.1037 18.4571C29.9502 18.3012 29.8641 18.0912 29.8641 17.8724V9.94445H27.4519V13.6993C27.4519 14.0274 27.2594 14.325 26.9601 14.4594C26.6608 14.5939 26.3105 14.5402 26.0652 14.3223L20.6104 9.47743Z" fill="white"/>
</svg>
