<svg width="41" height="40" viewBox="0 0 41 40" fill="none" xmlns="http://www.w3.org/2000/svg">
<path d="M40.4141 0L0.414062 0L0.414062 40L40.4141 40L40.4141 0Z" fill="#333333"/>
<path fill-rule="evenodd" clip-rule="evenodd" d="M11.4556 12.292C10.7652 12.292 10.2056 12.8516 10.2056 13.542C10.2056 14.2323 10.7652 14.792 11.4556 14.792H12.2889C12.9793 14.792 13.5389 14.2323 13.5389 13.542C13.5389 12.8516 12.9793 12.292 12.2889 12.292H11.4556ZM16.4556 12.292C15.7652 12.292 15.2056 12.8516 15.2056 13.542C15.2056 14.2323 15.7652 14.792 16.4556 14.792L29.7889 14.792C30.4793 14.792 31.0389 14.2323 31.0389 13.542C31.0389 12.8516 30.4793 12.292 29.7889 12.292L16.4556 12.292ZM16.4556 18.9587C15.7652 18.9587 15.2056 19.5183 15.2056 20.2087C15.2056 20.899 15.7652 21.4587 16.4556 21.4587L29.7889 21.4587C30.4793 21.4587 31.0389 20.899 31.0389 20.2087C31.0389 19.5183 30.4793 18.9587 29.7889 18.9587L16.4556 18.9587ZM15.2056 26.8753C15.2056 26.185 15.7652 25.6253 16.4556 25.6253L29.7889 25.6253C30.4793 25.6253 31.0389 26.185 31.0389 26.8753C31.0389 27.5657 30.4793 28.1253 29.7889 28.1253L16.4556 28.1253C15.7652 28.1253 15.2056 27.5657 15.2056 26.8753ZM10.2056 20.2087C10.2056 19.5183 10.7652 18.9587 11.4556 18.9587H12.2889C12.9793 18.9587 13.5389 19.5183 13.5389 20.2087C13.5389 20.899 12.9793 21.4587 12.2889 21.4587H11.4556C10.7652 21.4587 10.2056 20.899 10.2056 20.2087ZM11.4556 25.6253C10.7652 25.6253 10.2056 26.185 10.2056 26.8753C10.2056 27.5657 10.7652 28.1253 11.4556 28.1253H12.2889C12.9793 28.1253 13.5389 27.5657 13.5389 26.8753C13.5389 26.185 12.9793 25.6253 12.2889 25.6253H11.4556Z" fill="white"/>
</svg>
