<svg width="41" height="40" viewBox="0 0 41 40" fill="none" xmlns="http://www.w3.org/2000/svg">
<path d="M40.0684 0H0.0683594V40H40.0684V0Z" fill="#333333"/>
<path fill-rule="evenodd" clip-rule="evenodd" d="M19.6469 9.79199C14.2558 9.79199 9.98047 13.9016 9.98047 18.9386C9.98047 23.9347 14.1868 28.0185 19.516 28.0843L18.987 27.7554C18.4007 27.3909 18.2209 26.6202 18.5854 26.0339C18.9499 25.4476 19.7207 25.2678 20.3069 25.6323L24.5555 28.2736C24.9206 28.5006 25.1435 28.8993 25.1455 29.3292C25.1475 29.7591 24.9285 30.16 24.5655 30.3904L20.317 33.0879C19.7342 33.4579 18.9617 33.2854 18.5917 32.7026C18.2217 32.1198 18.3942 31.3474 18.977 30.9774L19.5942 30.5854H19.5935H19.5926H19.5918H19.5911H19.5905H19.5899H19.5895H19.5891H19.5888H19.5886H19.5884V30.585C19.5884 30.585 19.5884 30.585 19.5884 30.585V30.5854C19.574 30.5854 19.5596 30.5852 19.5454 30.5847C12.9443 30.533 7.48047 25.445 7.48047 18.9386C7.48047 12.3988 13.0004 7.29199 19.6469 7.29199C26.2978 7.29199 31.8133 12.4593 31.8133 18.9386C31.8133 19.6289 31.2536 20.1886 30.5633 20.1886C29.8729 20.1886 29.3133 19.6289 29.3133 18.9386C29.3133 13.9535 25.0334 9.79199 19.6469 9.79199Z" fill="white"/>
</svg>
