<svg width="32" height="32" viewBox="0 0 32 32" fill="none" xmlns="http://www.w3.org/2000/svg">
<path d="M32 0L0 0L0 32L32 32L32 0Z" fill="white"/>
<path fill-rule="evenodd" clip-rule="evenodd" d="M15.4105 6.23109C15.6614 5.98052 16.0639 5.96882 16.3289 6.2044L20.0725 9.53176V7.33182C20.0725 6.96141 20.3725 6.66113 20.7427 6.66113L24.0231 6.66113C24.3933 6.66113 24.6933 6.96141 24.6933 7.33182V14.1083L27.2859 16.7424C27.4755 16.935 27.531 17.2227 27.4266 17.4721C27.3223 17.7214 27.0786 17.8837 26.8084 17.8837L24.6933 17.8837L24.6933 25.4852C24.6933 25.8556 24.3933 26.1559 24.0231 26.1559H18.4216C18.0514 26.1559 17.7514 25.8556 17.7514 25.4852V21.7088H14.0473V25.4852C14.0473 25.8556 13.7473 26.1559 13.3771 26.1559H8.14694C7.77679 26.1559 7.47672 25.8556 7.47672 25.4852L7.47672 17.8837H5.36164C5.09043 17.8837 4.84596 17.7202 4.74231 17.4694C4.63865 17.2186 4.69626 16.93 4.88823 16.7383L15.4105 6.23109ZM15.9106 7.62665L6.98213 16.5424H8.14694C8.51708 16.5424 8.81715 16.8426 8.81715 17.2131L8.81715 24.8145H12.7069V21.0381C12.7069 20.6677 13.007 20.3674 13.3771 20.3674H18.4216C18.7917 20.3674 19.0918 20.6677 19.0918 21.0381V24.8145H23.3529L23.3529 17.2131C23.3529 16.8426 23.653 16.5424 24.0231 16.5424L25.2076 16.5424L23.5456 14.8538C23.4221 14.7283 23.3529 14.5592 23.3529 14.3831V8.00251H21.4129V11.0245C21.4129 11.2886 21.258 11.5281 21.0174 11.6363C20.7767 11.7445 20.4949 11.7013 20.2976 11.526L15.9106 7.62665Z" fill="#333333"/>
</svg>
