<svg width="32" height="32" viewBox="0 0 32 32" fill="none" xmlns="http://www.w3.org/2000/svg">
<path d="M32 0L0 0L0 32L32 32L32 0Z" fill="white"/>
<path fill-rule="evenodd" clip-rule="evenodd" d="M16.453 5.28773C16.221 5.16972 15.9479 5.16972 15.7159 5.28773L6.48676 9.98255C6.20759 10.1246 6.03125 10.4149 6.03125 10.7324C6.03125 11.05 6.20759 11.3402 6.48676 11.4823L10.2853 13.4145L6.48676 15.3468C6.20759 15.4888 6.03125 15.7791 6.03125 16.0967C6.03125 16.4142 6.20759 16.7045 6.48676 16.8465L10.2866 18.7795L6.48676 20.7124C6.20759 20.8545 6.03125 21.1448 6.03125 21.4623C6.03125 21.7798 6.20759 22.0701 6.48676 22.2122L15.7159 26.907C15.9479 27.025 16.221 27.025 16.453 26.907L25.6821 22.2122C25.9613 22.0701 26.1376 21.7798 26.1376 21.4623C26.1376 21.1448 25.9613 20.8545 25.6821 20.7124L21.8823 18.7795L25.6821 16.8465C25.9613 16.7045 26.1376 16.4142 26.1376 16.0967C26.1376 15.7791 25.9613 15.4888 25.6821 15.3468L21.8836 13.4145L25.6821 11.4823C25.9613 11.3402 26.1376 11.05 26.1376 10.7324C26.1376 10.4149 25.9613 10.1246 25.6821 9.98255L16.453 5.28773ZM20.0397 19.7168L16.453 21.5414C16.221 21.6594 15.9479 21.6594 15.7159 21.5414L12.1292 19.7168L8.69788 21.4623L16.0844 25.2198L23.471 21.4623L20.0397 19.7168ZM8.69788 16.0967L12.1279 14.3519L15.7159 16.1771C15.9479 16.2951 16.221 16.2951 16.453 16.1771L20.041 14.3519L23.471 16.0967L16.0844 19.8542L8.69788 16.0967Z" fill="#333333"/>
</svg>
