<svg width="40" height="40" viewBox="0 0 40 40" fill="none" xmlns="http://www.w3.org/2000/svg">
<path fill-rule="evenodd" clip-rule="evenodd" d="M20.4582 6.56798C20.1698 6.42135 19.8302 6.42135 19.5418 6.56798L8.06638 12.4013C7.71926 12.5778 7.5 12.9385 7.5 13.333C7.5 13.7276 7.71926 14.0883 8.06638 14.2647L12.7911 16.6664L8.06638 19.0682C7.71926 19.2446 7.5 19.6053 7.5 19.9999C7.5 20.3944 7.71926 20.7551 8.06638 20.9316L12.7909 23.3332L8.06638 25.7349C7.71926 25.9113 7.5 26.272 7.5 26.6666C7.5 27.0611 7.71926 27.4218 8.06638 27.5983L19.5418 33.4316C19.8302 33.5782 20.1698 33.5782 20.4582 33.4316L31.9336 27.5983C32.2807 27.4218 32.5 27.0611 32.5 26.6666C32.5 26.272 32.2807 25.9113 31.9336 25.7349L27.2091 23.3332L31.9336 20.9316C32.2807 20.7551 32.5 20.3944 32.5 19.9999C32.5 19.6053 32.2807 19.2446 31.9336 19.0682L27.2089 16.6664L31.9336 14.2647C32.2807 14.0883 32.5 13.7276 32.5 13.333C32.5 12.9385 32.2807 12.5778 31.9336 12.4013L20.4582 6.56798ZM24.918 24.4978L20.4582 26.7649C20.1698 26.9115 19.8302 26.9115 19.5418 26.7649L15.082 24.4978L10.8156 26.6666L20 31.3353L29.1844 26.6666L24.918 24.4978ZM10.8156 19.9999L15.0822 17.8311L19.5418 20.098C19.8302 20.2447 20.1698 20.2447 20.4582 20.098L24.9178 17.8311L29.1844 19.9999L20 24.6686L10.8156 19.9999Z" fill="#333333"/>
</svg>
