<svg width="32" height="32" viewBox="0 0 32 32" fill="none" xmlns="http://www.w3.org/2000/svg">
<path d="M32 0L0 0L0 32L32 32L32 0Z" fill="white"/>
<path fill-rule="evenodd" clip-rule="evenodd" d="M8.88086 9.34961C8.1905 9.34961 7.63086 9.90925 7.63086 10.5996C7.63086 11.29 8.1905 11.8496 8.88086 11.8496H9.55107C10.2414 11.8496 10.8011 11.29 10.8011 10.5996C10.8011 9.90925 10.2414 9.34961 9.55107 9.34961H8.88086ZM12.9027 9.34961C12.2124 9.34961 11.6527 9.90925 11.6527 10.5996C11.6527 11.29 12.2124 11.8496 12.9027 11.8496L23.6261 11.8496C24.3165 11.8496 24.8761 11.29 24.8761 10.5996C24.8761 9.90925 24.3165 9.34961 23.6261 9.34961L12.9027 9.34961ZM12.9027 14.7152C12.2124 14.7152 11.6527 15.2749 11.6527 15.9652C11.6527 16.6556 12.2124 17.2152 12.9027 17.2152L23.6261 17.2152C24.3165 17.2152 24.8761 16.6556 24.8761 15.9652C24.8761 15.2749 24.3165 14.7152 23.6261 14.7152L12.9027 14.7152ZM11.6527 21.3309C11.6527 20.6405 12.2124 20.0809 12.9027 20.0809H23.6261C24.3165 20.0809 24.8761 20.6405 24.8761 21.3309C24.8761 22.0212 24.3165 22.5809 23.6261 22.5809H12.9027C12.2124 22.5809 11.6527 22.0212 11.6527 21.3309ZM7.63086 15.9652C7.63086 15.2749 8.1905 14.7152 8.88086 14.7152H9.55107C10.2414 14.7152 10.8011 15.2749 10.8011 15.9652C10.8011 16.6556 10.2414 17.2152 9.55107 17.2152H8.88086C8.1905 17.2152 7.63086 16.6556 7.63086 15.9652ZM8.88086 20.0809C8.1905 20.0809 7.63086 20.6405 7.63086 21.3309C7.63086 22.0212 8.1905 22.5809 8.88086 22.5809H9.55107C10.2414 22.5809 10.8011 22.0212 10.8011 21.3309C10.8011 20.6405 10.2414 20.0809 9.55107 20.0809H8.88086Z" fill="#333333"/>
</svg>
