<svg width="32" height="32" viewBox="0 0 32 32" fill="none" xmlns="http://www.w3.org/2000/svg">
<path d="M32 0L0 0L0 32L32 32L32 0Z" fill="white"/>
<path d="M15.6628 7.83789C11.3506 7.83789 7.92969 11.1276 7.92969 15.161C7.92969 19.1625 11.2964 22.4318 15.5601 22.4836L15.1345 22.2188C14.6655 21.927 14.5219 21.3104 14.8136 20.8415C15.1054 20.3725 15.722 20.2289 16.191 20.5206L19.5898 22.6351C19.8818 22.8168 20.0599 23.1357 20.0616 23.4795C20.0632 23.8233 19.8881 24.1439 19.5978 24.3283L16.199 26.4878C15.7329 26.784 15.1149 26.6462 14.8187 26.18C14.5225 25.7139 14.6603 25.0959 15.1264 24.7997L15.6215 24.4852H15.6159V24.4841C15.6159 24.4841 15.616 24.4841 15.6159 24.4841V24.4852C15.5978 24.4852 15.5797 24.4847 15.5618 24.4837C10.2892 24.4323 5.92969 20.3623 5.92969 15.161C5.92969 9.92659 10.345 5.83789 15.6628 5.83789C20.9843 5.83789 25.3959 9.97501 25.3959 15.161C25.3959 15.7133 24.9482 16.161 24.3959 16.161C23.8437 16.161 23.3959 15.7133 23.3959 15.161C23.3959 11.1691 19.9714 7.83789 15.6628 7.83789Z" fill="#333333"/>
</svg>
