<svg width="41" height="40" viewBox="0 0 41 40" fill="none" xmlns="http://www.w3.org/2000/svg">
<path fill-rule="evenodd" clip-rule="evenodd" d="M19.647 9.58333C14.1513 9.58333 9.7723 13.7761 9.7723 18.9382C9.7723 24.0897 14.1332 28.2757 19.6129 28.2931H19.6142H19.6163H19.6185H19.6207H19.623H19.6254H19.6279H19.6305H19.6331H19.6358H19.6386H19.6415H19.6444H19.6474H19.6505H19.6536H19.6569H19.6602H19.6635H19.667H19.6705H19.6741H19.6777H19.6815H19.6852H19.6891H19.6931H19.6971H19.7011H19.7053H19.7095H19.7138H19.7181H19.7225H19.727H19.7316H19.7362H19.7409H19.7456H19.7504H19.7553H19.7603H19.7653H19.7703H19.7755H19.7807H19.7859H19.7913H19.7966H19.8021H19.8076H19.8132H19.8188H19.8245H19.8302H19.8361H19.8419H19.8479H19.8539H19.8599H19.866H19.8722H19.8784H19.8847H19.891H19.8974H19.9039H19.9104H19.9169H19.9236H19.9302H19.937H19.9437H19.9506H19.9575H19.9644H19.9714H19.9784H19.9855H19.9927H19.9999H20.0072H20.0145H20.0218H20.0292H20.0367H20.0442H20.0517H20.0593H20.067H20.0747H20.0824H20.0902H20.0981H20.106H20.1139H20.1219H20.1299H20.138H20.1461H20.1543H20.1625H20.1708H20.179H20.1874H20.1958H20.2042H20.2127H20.2212H20.2297H20.2383H20.2468L19.0969 27.5782C18.6083 27.2744 18.4585 26.6321 18.7622 26.1435C19.066 25.655 19.7083 25.5051 20.1969 25.8089L24.4454 28.4502C24.7497 28.6393 24.9354 28.9716 24.9371 29.3299C24.9388 29.6881 24.7562 30.0222 24.4538 30.2142L20.2052 32.9117C19.7195 33.22 19.0759 33.0763 18.7675 32.5906C18.4591 32.105 18.6029 31.4613 19.0885 31.1529L20.3115 30.3764H20.3086H20.2996H20.2908H20.2819H20.2731H20.2644H20.2556H20.247H20.2383H20.2297H20.2212H20.2127H20.2042H20.1958H20.1874H20.179H20.1708H20.1625H20.1543H20.1461H20.138H20.1299H20.1219H20.1139H20.106H20.0981H20.0902H20.0824H20.0747H20.067H20.0593H20.0517H20.0442H20.0367H20.0292H20.0218H20.0145H20.0072H19.9999H19.9927H19.9855H19.9784H19.9714H19.9644H19.9575H19.9506H19.9437H19.937H19.9302H19.9236H19.9169H19.9104H19.9039H19.8974H19.891H19.8847H19.8784H19.8722H19.866H19.8599H19.8539H19.8479H19.8419H19.8361H19.8302H19.8245H19.8188H19.8132H19.8076H19.8021H19.7966H19.7913H19.7859H19.7807H19.7755H19.7703H19.7653H19.7603H19.7553H19.7504H19.7456H19.7409H19.7362H19.7316H19.727H19.7225H19.7181H19.7138H19.7095H19.7053H19.7011H19.6971H19.6931H19.6891H19.6852H19.6815H19.6777H19.6741H19.6705H19.667H19.6635H19.6602H19.6577C19.6542 30.3764 19.6506 30.3765 19.647 30.3765C19.6346 30.3765 19.6222 30.3764 19.6099 30.3764H19.6084H19.6066H19.6049H19.6033H19.6017H19.6003H19.5989H19.5976H19.5964H19.5952H19.5942H19.5932H19.5923H19.5915H19.5908H19.5902H19.5896H19.5891H19.5887H19.5884H19.5882H19.5881V30.3763C19.5881 30.3763 19.5881 30.3763 19.5881 30.3763V30.3764C19.5815 30.3764 19.575 30.3763 19.5685 30.3762C13.0619 30.3362 7.68896 25.3271 7.68896 18.9382C7.68896 12.5237 13.1052 7.5 19.647 7.5C26.1926 7.5 31.6051 12.5835 31.6051 18.9382C31.6051 19.5135 31.1387 19.9799 30.5634 19.9799C29.9881 19.9799 29.5217 19.5135 29.5217 18.9382C29.5217 13.8287 25.139 9.58333 19.647 9.58333Z" fill="#333333"/>
</svg>
