<svg width="61" height="60" viewBox="0 0 61 60" fill="none" xmlns="http://www.w3.org/2000/svg">
<g filter="url(#filter0_d)">
<path d="M48.1819 30.2177V29.7823C48.1819 19.9614 40.2205 12 30.3995 12C20.5786 12 12.6172 19.9614 12.6172 29.7823V30.2177C12.6172 40.0386 20.5786 48 30.3995 48C40.2205 48 48.1819 40.0386 48.1819 30.2177Z" fill="#EB3030"/>
<path d="M36.327 25.6612C36.327 26.4427 36.2113 27.148 35.9797 27.777C35.7579 28.406 35.4395 28.9492 35.0247 29.4067C34.6196 29.8642 34.1276 30.2311 33.5488 30.5075C32.9796 30.7839 32.3478 30.9602 31.6532 31.0365L31.5375 33.8242C31.5278 33.9957 31.3879 34.1244 31.1178 34.2101C30.8574 34.2959 30.4763 34.3388 29.9747 34.3388C29.6564 34.3388 29.3863 34.334 29.1644 34.3245C28.9522 34.3055 28.7834 34.2769 28.6579 34.2387C28.5325 34.2006 28.4409 34.1482 28.383 34.0815C28.3251 34.0148 28.2914 33.929 28.2817 33.8242L28.1515 30.4503C28.1418 30.1453 28.1563 29.8975 28.1949 29.7069C28.2335 29.5163 28.301 29.3638 28.3975 29.2495C28.5036 29.1351 28.6338 29.0589 28.7882 29.0207C28.9425 28.9731 29.1258 28.9492 29.338 28.9492H29.5406C30.0519 28.9492 30.4908 28.8682 30.8574 28.7062C31.2336 28.5442 31.5423 28.3298 31.7835 28.0629C32.0246 27.796 32.1983 27.4815 32.3044 27.1194C32.4201 26.7572 32.478 26.3712 32.478 25.9614C32.478 25.5039 32.4105 25.0846 32.2754 24.7034C32.15 24.3221 31.9523 23.9933 31.6822 23.7169C31.4217 23.4406 31.0889 23.2309 30.6837 23.0879C30.2882 22.9354 29.8204 22.8592 29.2802 22.8592C28.7882 22.8592 28.3541 22.9068 27.9779 23.0021C27.6016 23.0975 27.2785 23.2023 27.0084 23.3167C26.7383 23.431 26.5116 23.5359 26.3283 23.6312C26.1546 23.7265 26.0196 23.7741 25.9231 23.7741C25.8556 23.7741 25.7929 23.7551 25.735 23.7169C25.6771 23.6693 25.6289 23.5883 25.5903 23.4739C25.5517 23.3595 25.518 23.1975 25.489 22.9878C25.4697 22.7782 25.4601 22.5113 25.4601 22.1873C25.4601 21.8537 25.4746 21.6107 25.5035 21.4582C25.5324 21.3057 25.5951 21.1818 25.6916 21.0865C25.7881 20.9912 25.9714 20.8816 26.2415 20.7577C26.5116 20.6243 26.8347 20.5051 27.2109 20.4003C27.5872 20.2859 28.0068 20.1906 28.4698 20.1144C28.9329 20.0381 29.4152 20 29.9168 20C31.0551 20 32.0294 20.1573 32.8398 20.4718C33.6501 20.7767 34.3109 21.1913 34.8222 21.7155C35.3431 22.2397 35.7241 22.8401 35.9653 23.5168C36.2064 24.1935 36.327 24.9083 36.327 25.6612ZM32.0439 37.9128C32.0439 38.3036 32.0102 38.6324 31.9426 38.8992C31.8847 39.1661 31.7738 39.3805 31.6098 39.5425C31.4555 39.7045 31.2432 39.8189 30.9731 39.8856C30.7127 39.9619 30.3895 40 30.0037 40C29.5985 40 29.2657 39.9619 29.0052 39.8856C28.7448 39.8189 28.5325 39.7045 28.3685 39.5425C28.2142 39.3805 28.1033 39.1661 28.0357 38.8992C27.9779 38.6324 27.9489 38.3036 27.9489 37.9128C27.9489 37.5125 27.9779 37.1789 28.0357 36.9121C28.1033 36.6357 28.2142 36.4165 28.3685 36.2545C28.5325 36.0829 28.7448 35.9638 29.0052 35.8971C29.2657 35.8208 29.5985 35.7827 30.0037 35.7827C30.3895 35.7827 30.7127 35.8208 30.9731 35.8971C31.2432 35.9638 31.4555 36.0829 31.6098 36.2545C31.7738 36.4165 31.8847 36.6357 31.9426 36.9121C32.0102 37.1789 32.0439 37.5125 32.0439 37.9128Z" fill="white"/>
</g>
<defs>
<filter id="filter0_d" x="0.617188" y="0" width="59.5647" height="60" filterUnits="userSpaceOnUse" color-interpolation-filters="sRGB">
<feFlood flood-opacity="0" result="BackgroundImageFix"/>
<feColorMatrix in="SourceAlpha" type="matrix" values="0 0 0 0 0 0 0 0 0 0 0 0 0 0 0 0 0 0 127 0"/>
<feOffset/>
<feGaussianBlur stdDeviation="6"/>
<feColorMatrix type="matrix" values="0 0 0 0 0 0 0 0 0 0 0 0 0 0 0 0 0 0 0.32 0"/>
<feBlend mode="normal" in2="BackgroundImageFix" result="effect1_dropShadow"/>
<feBlend mode="normal" in="SourceGraphic" in2="effect1_dropShadow" result="shape"/>
</filter>
</defs>
</svg>
