<svg width="225" height="40" viewBox="0 0 225 40" fill="none" xmlns="http://www.w3.org/2000/svg">
<rect width="225" height="40" fill="#BF0909"/>
<rect x="52" y="2" width="1" height="36" fill="white"/>
<path d="M62.9258 17V8.41016H66.166C66.7363 8.41016 67.1719 8.4375 67.4727 8.49219C67.8945 8.5625 68.248 8.69727 68.5332 8.89648C68.8184 9.0918 69.0469 9.36719 69.2188 9.72266C69.3945 10.0781 69.4824 10.4688 69.4824 10.8945C69.4824 11.625 69.25 12.2441 68.7852 12.752C68.3203 13.2559 67.4805 13.5078 66.2656 13.5078H64.0625V17H62.9258ZM64.0625 12.4941H66.2832C67.0176 12.4941 67.5391 12.3574 67.8477 12.084C68.1562 11.8105 68.3105 11.4258 68.3105 10.9297C68.3105 10.5703 68.2188 10.2637 68.0352 10.0098C67.8555 9.75195 67.6172 9.58203 67.3203 9.5C67.1289 9.44922 66.7754 9.42383 66.2598 9.42383H64.0625V12.4941Z" fill="white"/>
<path d="M70.6515 17V8.41016H71.7062V17H70.6515Z" fill="white"/>
<path d="M77.2873 16.2324C76.8967 16.5645 76.5198 16.7988 76.1565 16.9355C75.7971 17.0723 75.4104 17.1406 74.9963 17.1406C74.3127 17.1406 73.7873 16.9746 73.4202 16.6426C73.053 16.3066 72.8694 15.8789 72.8694 15.3594C72.8694 15.0547 72.9377 14.7773 73.0745 14.5273C73.2151 14.2734 73.3967 14.0703 73.6194 13.918C73.8459 13.7656 74.0998 13.6504 74.3811 13.5723C74.5881 13.5176 74.9006 13.4648 75.3186 13.4141C76.1702 13.3125 76.7971 13.1914 77.1995 13.0508C77.2034 12.9062 77.2053 12.8145 77.2053 12.7754C77.2053 12.3457 77.1057 12.043 76.9065 11.8672C76.637 11.6289 76.2366 11.5098 75.7053 11.5098C75.2092 11.5098 74.842 11.5977 74.6038 11.7734C74.3694 11.9453 74.1955 12.252 74.0823 12.6934L73.051 12.5527C73.1448 12.1113 73.2991 11.7559 73.5139 11.4863C73.7288 11.2129 74.0393 11.0039 74.4455 10.8594C74.8518 10.7109 75.3225 10.6367 75.8577 10.6367C76.3889 10.6367 76.8205 10.6992 77.1526 10.8242C77.4846 10.9492 77.7288 11.1074 77.885 11.2988C78.0413 11.4863 78.1506 11.7246 78.2131 12.0137C78.2483 12.1934 78.2659 12.5176 78.2659 12.9863V14.3926C78.2659 15.373 78.2873 15.9941 78.3303 16.2559C78.3772 16.5137 78.467 16.7617 78.5998 17H77.4983C77.3889 16.7812 77.3186 16.5254 77.2873 16.2324ZM77.1995 13.877C76.8166 14.0332 76.2424 14.166 75.4768 14.2754C75.0432 14.3379 74.7366 14.4082 74.5569 14.4863C74.3772 14.5645 74.2385 14.6797 74.1409 14.832C74.0432 14.9805 73.9944 15.1465 73.9944 15.3301C73.9944 15.6113 74.0998 15.8457 74.3108 16.0332C74.5256 16.2207 74.8381 16.3145 75.2483 16.3145C75.6545 16.3145 76.0159 16.2266 76.3323 16.0508C76.6487 15.8711 76.8811 15.627 77.0295 15.3184C77.1428 15.0801 77.1995 14.7285 77.1995 14.2637V13.877Z" fill="white"/>
<path d="M82.0892 16.0566L82.2416 16.9883C81.9447 17.0508 81.6791 17.082 81.4447 17.082C81.0619 17.082 80.765 17.0215 80.5541 16.9004C80.3431 16.7793 80.1947 16.6211 80.1087 16.4258C80.0228 16.2266 79.9798 15.8105 79.9798 15.1777V11.5977H79.2064V10.7773H79.9798V9.23633L81.0287 8.60352V10.7773H82.0892V11.5977H81.0287V15.2363C81.0287 15.5371 81.0462 15.7305 81.0814 15.8164C81.1205 15.9023 81.181 15.9707 81.263 16.0215C81.349 16.0723 81.4701 16.0977 81.6263 16.0977C81.7435 16.0977 81.8978 16.084 82.0892 16.0566Z" fill="white"/>
<path d="M87.0669 16.2324C86.6763 16.5645 86.2993 16.7988 85.936 16.9355C85.5766 17.0723 85.1899 17.1406 84.7759 17.1406C84.0923 17.1406 83.5669 16.9746 83.1997 16.6426C82.8325 16.3066 82.6489 15.8789 82.6489 15.3594C82.6489 15.0547 82.7173 14.7773 82.854 14.5273C82.9946 14.2734 83.1763 14.0703 83.3989 13.918C83.6255 13.7656 83.8794 13.6504 84.1606 13.5723C84.3677 13.5176 84.6802 13.4648 85.0981 13.4141C85.9497 13.3125 86.5766 13.1914 86.979 13.0508C86.9829 12.9062 86.9848 12.8145 86.9848 12.7754C86.9848 12.3457 86.8852 12.043 86.686 11.8672C86.4165 11.6289 86.0161 11.5098 85.4848 11.5098C84.9888 11.5098 84.6216 11.5977 84.3833 11.7734C84.1489 11.9453 83.9751 12.252 83.8618 12.6934L82.8305 12.5527C82.9243 12.1113 83.0786 11.7559 83.2934 11.4863C83.5083 11.2129 83.8188 11.0039 84.2251 10.8594C84.6313 10.7109 85.102 10.6367 85.6372 10.6367C86.1684 10.6367 86.6001 10.6992 86.9321 10.8242C87.2641 10.9492 87.5083 11.1074 87.6645 11.2988C87.8208 11.4863 87.9302 11.7246 87.9927 12.0137C88.0278 12.1934 88.0454 12.5176 88.0454 12.9863V14.3926C88.0454 15.373 88.0669 15.9941 88.1098 16.2559C88.1567 16.5137 88.2466 16.7617 88.3794 17H87.2778C87.1684 16.7812 87.0981 16.5254 87.0669 16.2324ZM86.979 13.877C86.5962 14.0332 86.022 14.166 85.2563 14.2754C84.8227 14.3379 84.5161 14.4082 84.3364 14.4863C84.1567 14.5645 84.018 14.6797 83.9204 14.832C83.8227 14.9805 83.7739 15.1465 83.7739 15.3301C83.7739 15.6113 83.8794 15.8457 84.0903 16.0332C84.3052 16.2207 84.6177 16.3145 85.0278 16.3145C85.4341 16.3145 85.7954 16.2266 86.1118 16.0508C86.4282 15.8711 86.6606 15.627 86.8091 15.3184C86.9223 15.0801 86.979 14.7285 86.979 14.2637V13.877Z" fill="white"/>
<path d="M89.818 17V11.5977H88.8863V10.7773H89.818V10.1152C89.818 9.69727 89.8551 9.38672 89.9293 9.18359C90.0309 8.91016 90.2086 8.68945 90.4625 8.52148C90.7203 8.34961 91.0797 8.26367 91.5406 8.26367C91.8375 8.26367 92.1656 8.29883 92.525 8.36914L92.3668 9.28906C92.148 9.25 91.941 9.23047 91.7457 9.23047C91.4254 9.23047 91.1988 9.29883 91.066 9.43555C90.9332 9.57227 90.8668 9.82812 90.8668 10.2031V10.7773H92.0797V11.5977H90.8668V17H89.818Z" fill="white"/>
<path d="M92.3933 13.8887C92.3933 12.7363 92.7136 11.8828 93.3542 11.3281C93.8894 10.8672 94.5417 10.6367 95.3112 10.6367C96.1667 10.6367 96.8659 10.918 97.4089 11.4805C97.9519 12.0391 98.2234 12.8125 98.2234 13.8008C98.2234 14.6016 98.1023 15.2324 97.8601 15.6934C97.6218 16.1504 97.2722 16.5059 96.8112 16.7598C96.3542 17.0137 95.8542 17.1406 95.3112 17.1406C94.4402 17.1406 93.7351 16.8613 93.196 16.3027C92.6609 15.7441 92.3933 14.9395 92.3933 13.8887ZM93.4773 13.8887C93.4773 14.6855 93.6511 15.2832 93.9988 15.6816C94.3464 16.0762 94.7839 16.2734 95.3112 16.2734C95.8347 16.2734 96.2702 16.0742 96.6179 15.6758C96.9655 15.2773 97.1394 14.6699 97.1394 13.8535C97.1394 13.084 96.9636 12.502 96.612 12.1074C96.2644 11.709 95.8308 11.5098 95.3112 11.5098C94.7839 11.5098 94.3464 11.707 93.9988 12.1016C93.6511 12.4961 93.4773 13.0918 93.4773 13.8887Z" fill="white"/>
<path d="M99.3338 17V10.7773H100.283V11.7207C100.525 11.2793 100.748 10.9883 100.951 10.8477C101.158 10.707 101.385 10.6367 101.631 10.6367C101.986 10.6367 102.347 10.75 102.715 10.9766L102.351 11.9551C102.094 11.8027 101.836 11.7266 101.578 11.7266C101.347 11.7266 101.14 11.7969 100.957 11.9375C100.773 12.0742 100.642 12.2656 100.564 12.5117C100.447 12.8867 100.389 13.2969 100.389 13.7422V17H99.3338Z" fill="white"/>
<path d="M103.222 17V10.7773H104.165V11.6504C104.36 11.3457 104.62 11.1016 104.944 10.918C105.269 10.7305 105.638 10.6367 106.052 10.6367C106.513 10.6367 106.89 10.7324 107.183 10.9238C107.479 11.1152 107.688 11.3828 107.81 11.7266C108.302 11 108.942 10.6367 109.731 10.6367C110.349 10.6367 110.823 10.8086 111.155 11.1523C111.487 11.4922 111.653 12.0176 111.653 12.7285V17H110.604V13.0801C110.604 12.6582 110.569 12.3555 110.499 12.1719C110.433 11.9844 110.31 11.834 110.13 11.7207C109.95 11.6074 109.739 11.5508 109.497 11.5508C109.06 11.5508 108.696 11.6973 108.407 11.9902C108.118 12.2793 107.974 12.7441 107.974 13.3848V17H106.919V12.957C106.919 12.4883 106.833 12.1367 106.661 11.9023C106.489 11.668 106.208 11.5508 105.817 11.5508C105.52 11.5508 105.245 11.6289 104.991 11.7852C104.741 11.9414 104.56 12.1699 104.446 12.4707C104.333 12.7715 104.276 13.2051 104.276 13.7715V17H103.222Z" fill="white"/>
<path d="M117.158 16.2324C116.768 16.5645 116.391 16.7988 116.027 16.9355C115.668 17.0723 115.281 17.1406 114.867 17.1406C114.184 17.1406 113.658 16.9746 113.291 16.6426C112.924 16.3066 112.74 15.8789 112.74 15.3594C112.74 15.0547 112.809 14.7773 112.945 14.5273C113.086 14.2734 113.268 14.0703 113.49 13.918C113.717 13.7656 113.971 13.6504 114.252 13.5723C114.459 13.5176 114.772 13.4648 115.19 13.4141C116.041 13.3125 116.668 13.1914 117.07 13.0508C117.074 12.9062 117.076 12.8145 117.076 12.7754C117.076 12.3457 116.977 12.043 116.777 11.8672C116.508 11.6289 116.107 11.5098 115.576 11.5098C115.08 11.5098 114.713 11.5977 114.475 11.7734C114.24 11.9453 114.066 12.252 113.953 12.6934L112.922 12.5527C113.016 12.1113 113.17 11.7559 113.385 11.4863C113.6 11.2129 113.91 11.0039 114.316 10.8594C114.723 10.7109 115.193 10.6367 115.729 10.6367C116.26 10.6367 116.691 10.6992 117.024 10.8242C117.356 10.9492 117.6 11.1074 117.756 11.2988C117.912 11.4863 118.022 11.7246 118.084 12.0137C118.119 12.1934 118.137 12.5176 118.137 12.9863V14.3926C118.137 15.373 118.158 15.9941 118.201 16.2559C118.248 16.5137 118.338 16.7617 118.471 17H117.369C117.26 16.7812 117.19 16.5254 117.158 16.2324ZM117.07 13.877C116.688 14.0332 116.113 14.166 115.348 14.2754C114.914 14.3379 114.607 14.4082 114.428 14.4863C114.248 14.5645 114.109 14.6797 114.012 14.832C113.914 14.9805 113.865 15.1465 113.865 15.3301C113.865 15.6113 113.971 15.8457 114.182 16.0332C114.397 16.2207 114.709 16.3145 115.119 16.3145C115.525 16.3145 115.887 16.2266 116.203 16.0508C116.52 15.8711 116.752 15.627 116.9 15.3184C117.014 15.0801 117.07 14.7285 117.07 14.2637V13.877Z" fill="white"/>
<path d="M123 17V8.41016H124.166L128.678 15.1543V8.41016H129.768V17H128.602L124.09 10.25V17H123Z" fill="white"/>
<path d="M135.49 16.2324C135.099 16.5645 134.722 16.7988 134.359 16.9355C133.999 17.0723 133.613 17.1406 133.199 17.1406C132.515 17.1406 131.99 16.9746 131.622 16.6426C131.255 16.3066 131.072 15.8789 131.072 15.3594C131.072 15.0547 131.14 14.7773 131.277 14.5273C131.417 14.2734 131.599 14.0703 131.822 13.918C132.048 13.7656 132.302 13.6504 132.583 13.5723C132.79 13.5176 133.103 13.4648 133.521 13.4141C134.372 13.3125 134.999 13.1914 135.402 13.0508C135.406 12.9062 135.408 12.8145 135.408 12.7754C135.408 12.3457 135.308 12.043 135.109 11.8672C134.839 11.6289 134.439 11.5098 133.908 11.5098C133.412 11.5098 133.044 11.5977 132.806 11.7734C132.572 11.9453 132.398 12.252 132.285 12.6934L131.253 12.5527C131.347 12.1113 131.501 11.7559 131.716 11.4863C131.931 11.2129 132.242 11.0039 132.648 10.8594C133.054 10.7109 133.525 10.6367 134.06 10.6367C134.591 10.6367 135.023 10.6992 135.355 10.8242C135.687 10.9492 135.931 11.1074 136.087 11.2988C136.244 11.4863 136.353 11.7246 136.415 12.0137C136.451 12.1934 136.468 12.5176 136.468 12.9863V14.3926C136.468 15.373 136.49 15.9941 136.533 16.2559C136.58 16.5137 136.669 16.7617 136.802 17H135.701C135.591 16.7812 135.521 16.5254 135.49 16.2324ZM135.402 13.877C135.019 14.0332 134.445 14.166 133.679 14.2754C133.246 14.3379 132.939 14.4082 132.759 14.4863C132.58 14.5645 132.441 14.6797 132.343 14.832C132.246 14.9805 132.197 15.1465 132.197 15.3301C132.197 15.6113 132.302 15.8457 132.513 16.0332C132.728 16.2207 133.04 16.3145 133.451 16.3145C133.857 16.3145 134.218 16.2266 134.535 16.0508C134.851 15.8711 135.083 15.627 135.232 15.3184C135.345 15.0801 135.402 14.7285 135.402 14.2637V13.877Z" fill="white"/>
<path d="M142.049 14.7207L143.086 14.8555C142.973 15.5703 142.682 16.1309 142.213 16.5371C141.749 16.9395 141.176 17.1406 140.497 17.1406C139.645 17.1406 138.96 16.8633 138.44 16.3086C137.924 15.75 137.667 14.9512 137.667 13.9121C137.667 13.2402 137.778 12.6523 138.001 12.1484C138.223 11.6445 138.561 11.2676 139.014 11.0176C139.471 10.7637 139.967 10.6367 140.503 10.6367C141.178 10.6367 141.731 10.8086 142.161 11.1523C142.59 11.4922 142.866 11.9766 142.987 12.6055L141.961 12.7637C141.864 12.3457 141.69 12.0312 141.44 11.8203C141.194 11.6094 140.895 11.5039 140.544 11.5039C140.012 11.5039 139.581 11.6953 139.249 12.0781C138.917 12.457 138.751 13.0586 138.751 13.8828C138.751 14.7188 138.911 15.3262 139.231 15.7051C139.551 16.084 139.969 16.2734 140.485 16.2734C140.899 16.2734 141.245 16.1465 141.522 15.8926C141.799 15.6387 141.975 15.248 142.049 14.7207Z" fill="white"/>
<path d="M143.875 9.62305V8.41016H144.929V9.62305H143.875ZM143.875 17V10.7773H144.929V17H143.875Z" fill="white"/>
<path d="M146.028 13.8887C146.028 12.7363 146.348 11.8828 146.989 11.3281C147.524 10.8672 148.177 10.6367 148.946 10.6367C149.802 10.6367 150.501 10.918 151.044 11.4805C151.587 12.0391 151.858 12.8125 151.858 13.8008C151.858 14.6016 151.737 15.2324 151.495 15.6934C151.257 16.1504 150.907 16.5059 150.446 16.7598C149.989 17.0137 149.489 17.1406 148.946 17.1406C148.075 17.1406 147.37 16.8613 146.831 16.3027C146.296 15.7441 146.028 14.9395 146.028 13.8887ZM147.112 13.8887C147.112 14.6855 147.286 15.2832 147.634 15.6816C147.981 16.0762 148.419 16.2734 148.946 16.2734C149.47 16.2734 149.905 16.0742 150.253 15.6758C150.6 15.2773 150.774 14.6699 150.774 13.8535C150.774 13.084 150.598 12.502 150.247 12.1074C149.899 11.709 149.466 11.5098 148.946 11.5098C148.419 11.5098 147.981 11.707 147.634 12.1016C147.286 12.4961 147.112 13.0918 147.112 13.8887Z" fill="white"/>
<path d="M152.98 17V10.7773H153.93V11.6621C154.387 10.9785 155.047 10.6367 155.91 10.6367C156.285 10.6367 156.629 10.7051 156.941 10.8418C157.258 10.9746 157.494 11.1504 157.65 11.3691C157.807 11.5879 157.916 11.8477 157.978 12.1484C158.018 12.3438 158.037 12.6855 158.037 13.1738V17H156.982V13.2148C156.982 12.7852 156.941 12.4648 156.859 12.2539C156.777 12.0391 156.631 11.8691 156.42 11.7441C156.213 11.6152 155.969 11.5508 155.687 11.5508C155.238 11.5508 154.85 11.6934 154.521 11.9785C154.197 12.2637 154.035 12.8047 154.035 13.6016V17H152.98Z" fill="white"/>
<path d="M163.601 16.2324C163.21 16.5645 162.833 16.7988 162.47 16.9355C162.11 17.0723 161.724 17.1406 161.31 17.1406C160.626 17.1406 160.101 16.9746 159.733 16.6426C159.366 16.3066 159.183 15.8789 159.183 15.3594C159.183 15.0547 159.251 14.7773 159.388 14.5273C159.528 14.2734 159.71 14.0703 159.933 13.918C160.159 13.7656 160.413 13.6504 160.694 13.5723C160.901 13.5176 161.214 13.4648 161.632 13.4141C162.483 13.3125 163.11 13.1914 163.513 13.0508C163.517 12.9062 163.519 12.8145 163.519 12.7754C163.519 12.3457 163.419 12.043 163.22 11.8672C162.95 11.6289 162.55 11.5098 162.019 11.5098C161.522 11.5098 161.155 11.5977 160.917 11.7734C160.683 11.9453 160.509 12.252 160.396 12.6934L159.364 12.5527C159.458 12.1113 159.612 11.7559 159.827 11.4863C160.042 11.2129 160.353 11.0039 160.759 10.8594C161.165 10.7109 161.636 10.6367 162.171 10.6367C162.702 10.6367 163.134 10.6992 163.466 10.8242C163.798 10.9492 164.042 11.1074 164.198 11.2988C164.355 11.4863 164.464 11.7246 164.526 12.0137C164.562 12.1934 164.579 12.5176 164.579 12.9863V14.3926C164.579 15.373 164.601 15.9941 164.644 16.2559C164.69 16.5137 164.78 16.7617 164.913 17H163.812C163.702 16.7812 163.632 16.5254 163.601 16.2324ZM163.513 13.877C163.13 14.0332 162.556 14.166 161.79 14.2754C161.356 14.3379 161.05 14.4082 160.87 14.4863C160.69 14.5645 160.552 14.6797 160.454 14.832C160.356 14.9805 160.308 15.1465 160.308 15.3301C160.308 15.6113 160.413 15.8457 160.624 16.0332C160.839 16.2207 161.151 16.3145 161.562 16.3145C161.968 16.3145 162.329 16.2266 162.646 16.0508C162.962 15.8711 163.194 15.627 163.343 15.3184C163.456 15.0801 163.513 14.7285 163.513 14.2637V13.877Z" fill="white"/>
<path d="M166.076 17V8.41016H167.131V17H166.076Z" fill="white"/>
<path d="M175.909 17V16.2148C175.514 16.832 174.934 17.1406 174.168 17.1406C173.672 17.1406 173.215 17.0039 172.797 16.7305C172.383 16.457 172.061 16.0762 171.83 15.5879C171.604 15.0957 171.491 14.5312 171.491 13.8945C171.491 13.2734 171.594 12.7109 171.801 12.207C172.008 11.6992 172.319 11.3105 172.733 11.041C173.147 10.7715 173.61 10.6367 174.121 10.6367C174.496 10.6367 174.83 10.7168 175.123 10.877C175.416 11.0332 175.655 11.2383 175.838 11.4922V8.41016H176.887V17H175.909ZM172.575 13.8945C172.575 14.6914 172.743 15.2871 173.079 15.6816C173.414 16.0762 173.811 16.2734 174.268 16.2734C174.729 16.2734 175.12 16.0859 175.44 15.7109C175.764 15.332 175.926 14.7559 175.926 13.9824C175.926 13.1309 175.762 12.5059 175.434 12.1074C175.106 11.709 174.702 11.5098 174.221 11.5098C173.752 11.5098 173.36 11.7012 173.043 12.084C172.731 12.4668 172.575 13.0703 172.575 13.8945Z" fill="white"/>
<path d="M182.691 14.9961L183.781 15.1309C183.609 15.7676 183.291 16.2617 182.826 16.6133C182.361 16.9648 181.767 17.1406 181.044 17.1406C180.134 17.1406 179.412 16.8613 178.876 16.3027C178.345 15.7402 178.08 14.9531 178.08 13.9414C178.08 12.8945 178.349 12.082 178.888 11.5039C179.427 10.9258 180.126 10.6367 180.986 10.6367C181.818 10.6367 182.498 10.9199 183.025 11.4863C183.552 12.0527 183.816 12.8496 183.816 13.877C183.816 13.9395 183.814 14.0332 183.81 14.1582H179.169C179.209 14.8418 179.402 15.3652 179.75 15.7285C180.097 16.0918 180.531 16.2734 181.05 16.2734C181.437 16.2734 181.767 16.1719 182.041 15.9688C182.314 15.7656 182.531 15.4414 182.691 14.9961ZM179.228 13.291H182.703C182.656 12.7676 182.523 12.375 182.304 12.1133C181.968 11.707 181.533 11.5039 180.998 11.5039C180.513 11.5039 180.105 11.666 179.773 11.9902C179.445 12.3145 179.263 12.748 179.228 13.291Z" fill="white"/>
<path d="M188.345 17V8.41016H191.304C191.972 8.41016 192.482 8.45117 192.834 8.5332C193.326 8.64648 193.746 8.85156 194.094 9.14844C194.547 9.53125 194.885 10.0215 195.107 10.6191C195.334 11.2129 195.447 11.8926 195.447 12.6582C195.447 13.3105 195.371 13.8887 195.219 14.3926C195.066 14.8965 194.871 15.3145 194.633 15.6465C194.394 15.9746 194.133 16.2344 193.847 16.4258C193.566 16.6133 193.224 16.7559 192.822 16.8535C192.424 16.9512 191.965 17 191.445 17H188.345ZM189.482 15.9863H191.316C191.883 15.9863 192.326 15.9336 192.646 15.8281C192.97 15.7227 193.228 15.5742 193.42 15.3828C193.689 15.1133 193.898 14.752 194.047 14.2988C194.199 13.8418 194.275 13.2891 194.275 12.6406C194.275 11.7422 194.127 11.0527 193.83 10.5723C193.537 10.0879 193.179 9.76367 192.758 9.59961C192.453 9.48242 191.963 9.42383 191.287 9.42383H189.482V15.9863Z" fill="white"/>
<path d="M200.823 16.2324C200.432 16.5645 200.056 16.7988 199.692 16.9355C199.333 17.0723 198.946 17.1406 198.532 17.1406C197.849 17.1406 197.323 16.9746 196.956 16.6426C196.589 16.3066 196.405 15.8789 196.405 15.3594C196.405 15.0547 196.474 14.7773 196.61 14.5273C196.751 14.2734 196.932 14.0703 197.155 13.918C197.382 13.7656 197.636 13.6504 197.917 13.5723C198.124 13.5176 198.436 13.4648 198.854 13.4141C199.706 13.3125 200.333 13.1914 200.735 13.0508C200.739 12.9062 200.741 12.8145 200.741 12.7754C200.741 12.3457 200.641 12.043 200.442 11.8672C200.173 11.6289 199.772 11.5098 199.241 11.5098C198.745 11.5098 198.378 11.5977 198.14 11.7734C197.905 11.9453 197.731 12.252 197.618 12.6934L196.587 12.5527C196.681 12.1113 196.835 11.7559 197.05 11.4863C197.265 11.2129 197.575 11.0039 197.981 10.8594C198.388 10.7109 198.858 10.6367 199.393 10.6367C199.925 10.6367 200.356 10.6992 200.688 10.8242C201.02 10.9492 201.265 11.1074 201.421 11.2988C201.577 11.4863 201.686 11.7246 201.749 12.0137C201.784 12.1934 201.802 12.5176 201.802 12.9863V14.3926C201.802 15.373 201.823 15.9941 201.866 16.2559C201.913 16.5137 202.003 16.7617 202.136 17H201.034C200.925 16.7812 200.854 16.5254 200.823 16.2324ZM200.735 13.877C200.352 14.0332 199.778 14.166 199.013 14.2754C198.579 14.3379 198.272 14.4082 198.093 14.4863C197.913 14.5645 197.774 14.6797 197.677 14.832C197.579 14.9805 197.53 15.1465 197.53 15.3301C197.53 15.6113 197.636 15.8457 197.847 16.0332C198.061 16.2207 198.374 16.3145 198.784 16.3145C199.19 16.3145 199.552 16.2266 199.868 16.0508C200.184 15.8711 200.417 15.627 200.565 15.3184C200.679 15.0801 200.735 14.7285 200.735 14.2637V13.877Z" fill="white"/>
<path d="M205.625 16.0566L205.777 16.9883C205.48 17.0508 205.215 17.082 204.98 17.082C204.598 17.082 204.301 17.0215 204.09 16.9004C203.879 16.7793 203.73 16.6211 203.645 16.4258C203.559 16.2266 203.516 15.8105 203.516 15.1777V11.5977H202.742V10.7773H203.516V9.23633L204.564 8.60352V10.7773H205.625V11.5977H204.564V15.2363C204.564 15.5371 204.582 15.7305 204.617 15.8164C204.656 15.9023 204.717 15.9707 204.799 16.0215C204.885 16.0723 205.006 16.0977 205.162 16.0977C205.279 16.0977 205.434 16.084 205.625 16.0566Z" fill="white"/>
<path d="M206.15 13.8887C206.15 12.7363 206.47 11.8828 207.11 11.3281C207.646 10.8672 208.298 10.6367 209.068 10.6367C209.923 10.6367 210.622 10.918 211.165 11.4805C211.708 12.0391 211.98 12.8125 211.98 13.8008C211.98 14.6016 211.859 15.2324 211.616 15.6934C211.378 16.1504 211.028 16.5059 210.568 16.7598C210.11 17.0137 209.61 17.1406 209.068 17.1406C208.196 17.1406 207.491 16.8613 206.952 16.3027C206.417 15.7441 206.15 14.9395 206.15 13.8887ZM207.234 13.8887C207.234 14.6855 207.407 15.2832 207.755 15.6816C208.103 16.0762 208.54 16.2734 209.068 16.2734C209.591 16.2734 210.026 16.0742 210.374 15.6758C210.722 15.2773 210.896 14.6699 210.896 13.8535C210.896 13.084 210.72 12.502 210.368 12.1074C210.021 11.709 209.587 11.5098 209.068 11.5098C208.54 11.5098 208.103 11.707 207.755 12.1016C207.407 12.4961 207.234 13.0918 207.234 13.8887Z" fill="white"/>
<path d="M212.68 15.1426L213.723 14.9785C213.781 15.3965 213.944 15.7168 214.209 15.9395C214.479 16.1621 214.854 16.2734 215.334 16.2734C215.819 16.2734 216.178 16.1758 216.412 15.9805C216.647 15.7812 216.764 15.5488 216.764 15.2832C216.764 15.0449 216.66 14.8574 216.453 14.7207C216.309 14.627 215.949 14.5078 215.375 14.3633C214.602 14.168 214.065 14 213.764 13.8594C213.467 13.7148 213.24 13.5176 213.084 13.2676C212.932 13.0137 212.856 12.7344 212.856 12.4297C212.856 12.1523 212.918 11.8965 213.043 11.6621C213.172 11.4238 213.346 11.2266 213.565 11.0703C213.729 10.9492 213.951 10.8477 214.233 10.7656C214.518 10.6797 214.822 10.6367 215.147 10.6367C215.635 10.6367 216.063 10.707 216.43 10.8477C216.801 10.9883 217.074 11.1797 217.25 11.4219C217.426 11.6602 217.547 11.9805 217.614 12.3828L216.582 12.5234C216.535 12.2031 216.399 11.9531 216.172 11.7734C215.949 11.5938 215.633 11.5039 215.223 11.5039C214.739 11.5039 214.393 11.584 214.186 11.7441C213.979 11.9043 213.875 12.0918 213.875 12.3066C213.875 12.4434 213.918 12.5664 214.004 12.6758C214.09 12.7891 214.225 12.8828 214.408 12.957C214.514 12.9961 214.824 13.0859 215.34 13.2266C216.086 13.4258 216.606 13.5898 216.899 13.7188C217.196 13.8438 217.428 14.0273 217.596 14.2695C217.764 14.5117 217.848 14.8125 217.848 15.1719C217.848 15.5234 217.744 15.8555 217.537 16.168C217.334 16.4766 217.039 16.7168 216.653 16.8887C216.266 17.0566 215.828 17.1406 215.34 17.1406C214.531 17.1406 213.914 16.9727 213.489 16.6367C213.067 16.3008 212.797 15.8027 212.68 15.1426Z" fill="white"/>
<path d="M66.9453 28.6309V27.623L70.584 27.6172V30.8047C70.0254 31.25 69.4492 31.5859 68.8555 31.8125C68.2617 32.0352 67.6523 32.1465 67.0273 32.1465C66.1836 32.1465 65.416 31.9668 64.7246 31.6074C64.0371 31.2441 63.5176 30.7207 63.166 30.0371C62.8145 29.3535 62.6387 28.5898 62.6387 27.7461C62.6387 26.9102 62.8125 26.1309 63.1602 25.4082C63.5117 24.6816 64.0156 24.1426 64.6719 23.791C65.3281 23.4395 66.084 23.2637 66.9395 23.2637C67.5605 23.2637 68.1211 23.3652 68.6211 23.5684C69.125 23.7676 69.5195 24.0469 69.8047 24.4062C70.0898 24.7656 70.3066 25.2344 70.4551 25.8125L69.4297 26.0938C69.3008 25.6562 69.1406 25.3125 68.9492 25.0625C68.7578 24.8125 68.4844 24.6133 68.1289 24.4648C67.7734 24.3125 67.3789 24.2363 66.9453 24.2363C66.4258 24.2363 65.9766 24.3164 65.5977 24.4766C65.2188 24.6328 64.9121 24.8398 64.6777 25.0977C64.4473 25.3555 64.2676 25.6387 64.1387 25.9473C63.9199 26.4785 63.8105 27.0547 63.8105 27.6758C63.8105 28.4414 63.9414 29.082 64.2031 29.5977C64.4688 30.1133 64.8535 30.4961 65.3574 30.7461C65.8613 30.9961 66.3965 31.1211 66.9629 31.1211C67.4551 31.1211 67.9355 31.0273 68.4043 30.8398C68.873 30.6484 69.2285 30.4453 69.4707 30.2305V28.6309H66.9453Z" fill="white"/>
<path d="M76.2706 29.9961L77.3605 30.1309C77.1886 30.7676 76.8702 31.2617 76.4054 31.6133C75.9405 31.9648 75.3468 32.1406 74.6241 32.1406C73.714 32.1406 72.9913 31.8613 72.4562 31.3027C71.9249 30.7402 71.6593 29.9531 71.6593 28.9414C71.6593 27.8945 71.9288 27.082 72.4679 26.5039C73.007 25.9258 73.7062 25.6367 74.5655 25.6367C75.3976 25.6367 76.0773 25.9199 76.6046 26.4863C77.132 27.0527 77.3956 27.8496 77.3956 28.877C77.3956 28.9395 77.3937 29.0332 77.3898 29.1582H72.7491C72.7882 29.8418 72.9816 30.3652 73.3292 30.7285C73.6769 31.0918 74.1105 31.2734 74.63 31.2734C75.0167 31.2734 75.3468 31.1719 75.6202 30.9688C75.8937 30.7656 76.1105 30.4414 76.2706 29.9961ZM72.8077 28.291H76.2823C76.2355 27.7676 76.1027 27.375 75.8839 27.1133C75.548 26.707 75.1124 26.5039 74.5773 26.5039C74.0929 26.5039 73.6847 26.666 73.3527 26.9902C73.0245 27.3145 72.8429 27.748 72.8077 28.291Z" fill="white"/>
<path d="M78.178 28.8887C78.178 27.7363 78.4983 26.8828 79.1389 26.3281C79.6741 25.8672 80.3264 25.6367 81.0959 25.6367C81.9514 25.6367 82.6506 25.918 83.1936 26.4805C83.7366 27.0391 84.008 27.8125 84.008 28.8008C84.008 29.6016 83.887 30.2324 83.6448 30.6934C83.4065 31.1504 83.0569 31.5059 82.5959 31.7598C82.1389 32.0137 81.6389 32.1406 81.0959 32.1406C80.2248 32.1406 79.5198 31.8613 78.9807 31.3027C78.4455 30.7441 78.178 29.9395 78.178 28.8887ZM79.262 28.8887C79.262 29.6855 79.4358 30.2832 79.7834 30.6816C80.1311 31.0762 80.5686 31.2734 81.0959 31.2734C81.6194 31.2734 82.0549 31.0742 82.4026 30.6758C82.7502 30.2773 82.9241 29.6699 82.9241 28.8535C82.9241 28.084 82.7483 27.502 82.3967 27.1074C82.0491 26.709 81.6155 26.5098 81.0959 26.5098C80.5686 26.5098 80.1311 26.707 79.7834 27.1016C79.4358 27.4961 79.262 28.0918 79.262 28.8887Z" fill="white"/>
<path d="M85.1185 32V25.7773H86.0677V26.7207C86.3099 26.2793 86.5326 25.9883 86.7357 25.8477C86.9427 25.707 87.1693 25.6367 87.4154 25.6367C87.7709 25.6367 88.1322 25.75 88.4994 25.9766L88.1361 26.9551C87.8783 26.8027 87.6205 26.7266 87.3627 26.7266C87.1322 26.7266 86.9252 26.7969 86.7416 26.9375C86.558 27.0742 86.4271 27.2656 86.349 27.5117C86.2318 27.8867 86.1732 28.2969 86.1732 28.7422V32H85.1185Z" fill="white"/>
<path d="M88.9946 32V25.7773H89.9438V26.7207C90.186 26.2793 90.4087 25.9883 90.6118 25.8477C90.8188 25.707 91.0454 25.6367 91.2915 25.6367C91.647 25.6367 92.0083 25.75 92.3755 25.9766L92.0122 26.9551C91.7544 26.8027 91.4966 26.7266 91.2388 26.7266C91.0083 26.7266 90.8013 26.7969 90.6177 26.9375C90.4341 27.0742 90.3032 27.2656 90.2251 27.5117C90.1079 27.8867 90.0493 28.2969 90.0493 28.7422V32H88.9946Z" fill="white"/>
<path d="M97.1422 29.9961L98.232 30.1309C98.0602 30.7676 97.7418 31.2617 97.277 31.6133C96.8121 31.9648 96.2184 32.1406 95.4957 32.1406C94.5855 32.1406 93.8629 31.8613 93.3277 31.3027C92.7965 30.7402 92.5309 29.9531 92.5309 28.9414C92.5309 27.8945 92.8004 27.082 93.3395 26.5039C93.8785 25.9258 94.5777 25.6367 95.4371 25.6367C96.2691 25.6367 96.9488 25.9199 97.4762 26.4863C98.0035 27.0527 98.2672 27.8496 98.2672 28.877C98.2672 28.9395 98.2652 29.0332 98.2613 29.1582H93.6207C93.6598 29.8418 93.8531 30.3652 94.2008 30.7285C94.5484 31.0918 94.982 31.2734 95.5016 31.2734C95.8883 31.2734 96.2184 31.1719 96.4918 30.9688C96.7652 30.7656 96.982 30.4414 97.1422 29.9961ZM93.6793 28.291H97.1539C97.107 27.7676 96.9742 27.375 96.7555 27.1133C96.4195 26.707 95.984 26.5039 95.4488 26.5039C94.9645 26.5039 94.5562 26.666 94.2242 26.9902C93.8961 27.3145 93.7145 27.748 93.6793 28.291Z" fill="white"/>
<path d="M99.6941 32V26.5977H98.7624V25.7773H99.6941V25.1152C99.6941 24.6973 99.7312 24.3867 99.8054 24.1836C99.907 23.9102 100.085 23.6895 100.339 23.5215C100.596 23.3496 100.956 23.2637 101.417 23.2637C101.714 23.2637 102.042 23.2988 102.401 23.3691L102.243 24.2891C102.024 24.25 101.817 24.2305 101.622 24.2305C101.301 24.2305 101.075 24.2988 100.942 24.4355C100.809 24.5723 100.743 24.8281 100.743 25.2031V25.7773H101.956V26.5977H100.743V32H99.6941Z" fill="white"/>
<path d="M106.922 29.9961L108.012 30.1309C107.84 30.7676 107.521 31.2617 107.056 31.6133C106.592 31.9648 105.998 32.1406 105.275 32.1406C104.365 32.1406 103.642 31.8613 103.107 31.3027C102.576 30.7402 102.31 29.9531 102.31 28.9414C102.31 27.8945 102.58 27.082 103.119 26.5039C103.658 25.9258 104.357 25.6367 105.217 25.6367C106.049 25.6367 106.728 25.9199 107.256 26.4863C107.783 27.0527 108.047 27.8496 108.047 28.877C108.047 28.9395 108.045 29.0332 108.041 29.1582H103.4C103.439 29.8418 103.633 30.3652 103.98 30.7285C104.328 31.0918 104.762 31.2734 105.281 31.2734C105.668 31.2734 105.998 31.1719 106.271 30.9688C106.545 30.7656 106.762 30.4414 106.922 29.9961ZM103.459 28.291H106.933C106.887 27.7676 106.754 27.375 106.535 27.1133C106.199 26.707 105.764 26.5039 105.228 26.5039C104.744 26.5039 104.336 26.666 104.004 26.9902C103.676 27.3145 103.494 27.748 103.459 28.291Z" fill="white"/>
<path d="M109.21 32V25.7773H110.159V26.7207C110.401 26.2793 110.624 25.9883 110.827 25.8477C111.034 25.707 111.261 25.6367 111.507 25.6367C111.862 25.6367 112.224 25.75 112.591 25.9766L112.228 26.9551C111.97 26.8027 111.712 26.7266 111.454 26.7266C111.224 26.7266 111.017 26.7969 110.833 26.9375C110.649 27.0742 110.519 27.2656 110.44 27.5117C110.323 27.8867 110.265 28.2969 110.265 28.7422V32H109.21Z" fill="white"/>
<path d="M117.357 29.9961L118.447 30.1309C118.275 30.7676 117.957 31.2617 117.492 31.6133C117.027 31.9648 116.434 32.1406 115.711 32.1406C114.801 32.1406 114.078 31.8613 113.543 31.3027C113.012 30.7402 112.746 29.9531 112.746 28.9414C112.746 27.8945 113.016 27.082 113.555 26.5039C114.094 25.9258 114.793 25.6367 115.652 25.6367C116.484 25.6367 117.164 25.9199 117.691 26.4863C118.219 27.0527 118.482 27.8496 118.482 28.877C118.482 28.9395 118.481 29.0332 118.477 29.1582H113.836C113.875 29.8418 114.068 30.3652 114.416 30.7285C114.764 31.0918 115.197 31.2734 115.717 31.2734C116.104 31.2734 116.434 31.1719 116.707 30.9688C116.981 30.7656 117.197 30.4414 117.357 29.9961ZM113.895 28.291H117.369C117.322 27.7676 117.19 27.375 116.971 27.1133C116.635 26.707 116.199 26.5039 115.664 26.5039C115.18 26.5039 114.772 26.666 114.44 26.9902C114.111 27.3145 113.93 27.748 113.895 28.291Z" fill="white"/>
<path d="M119.657 32V25.7773H120.607V26.6621C121.064 25.9785 121.724 25.6367 122.587 25.6367C122.962 25.6367 123.306 25.7051 123.618 25.8418C123.935 25.9746 124.171 26.1504 124.327 26.3691C124.484 26.5879 124.593 26.8477 124.655 27.1484C124.695 27.3438 124.714 27.6855 124.714 28.1738V32H123.659V28.2148C123.659 27.7852 123.618 27.4648 123.536 27.2539C123.454 27.0391 123.308 26.8691 123.097 26.7441C122.89 26.6152 122.646 26.5508 122.364 26.5508C121.915 26.5508 121.527 26.6934 121.198 26.9785C120.874 27.2637 120.712 27.8047 120.712 28.6016V32H119.657Z" fill="white"/>
<path d="M130.278 29.7207L131.315 29.8555C131.201 30.5703 130.91 31.1309 130.442 31.5371C129.977 31.9395 129.405 32.1406 128.725 32.1406C127.873 32.1406 127.188 31.8633 126.668 31.3086C126.153 30.75 125.895 29.9512 125.895 28.9121C125.895 28.2402 126.006 27.6523 126.229 27.1484C126.451 26.6445 126.789 26.2676 127.243 26.0176C127.7 25.7637 128.196 25.6367 128.731 25.6367C129.407 25.6367 129.959 25.8086 130.389 26.1523C130.819 26.4922 131.094 26.9766 131.215 27.6055L130.19 27.7637C130.092 27.3457 129.918 27.0312 129.668 26.8203C129.422 26.6094 129.123 26.5039 128.772 26.5039C128.241 26.5039 127.809 26.6953 127.477 27.0781C127.145 27.457 126.979 28.0586 126.979 28.8828C126.979 29.7188 127.139 30.3262 127.459 30.7051C127.78 31.084 128.198 31.2734 128.713 31.2734C129.127 31.2734 129.473 31.1465 129.75 30.8926C130.028 30.6387 130.203 30.248 130.278 29.7207Z" fill="white"/>
<path d="M132.103 24.623V23.4102H133.158V24.623H132.103ZM132.103 32V25.7773H133.158V32H132.103Z" fill="white"/>
<path d="M138.71 31.2324C138.319 31.5645 137.942 31.7988 137.579 31.9355C137.219 32.0723 136.833 32.1406 136.419 32.1406C135.735 32.1406 135.21 31.9746 134.842 31.6426C134.475 31.3066 134.292 30.8789 134.292 30.3594C134.292 30.0547 134.36 29.7773 134.497 29.5273C134.637 29.2734 134.819 29.0703 135.042 28.918C135.268 28.7656 135.522 28.6504 135.803 28.5723C136.01 28.5176 136.323 28.4648 136.741 28.4141C137.592 28.3125 138.219 28.1914 138.622 28.0508C138.626 27.9062 138.628 27.8145 138.628 27.7754C138.628 27.3457 138.528 27.043 138.329 26.8672C138.059 26.6289 137.659 26.5098 137.128 26.5098C136.631 26.5098 136.264 26.5977 136.026 26.7734C135.792 26.9453 135.618 27.252 135.504 27.6934L134.473 27.5527C134.567 27.1113 134.721 26.7559 134.936 26.4863C135.151 26.2129 135.461 26.0039 135.868 25.8594C136.274 25.7109 136.745 25.6367 137.28 25.6367C137.811 25.6367 138.243 25.6992 138.575 25.8242C138.907 25.9492 139.151 26.1074 139.307 26.2988C139.463 26.4863 139.573 26.7246 139.635 27.0137C139.67 27.1934 139.688 27.5176 139.688 27.9863V29.3926C139.688 30.373 139.71 30.9941 139.753 31.2559C139.799 31.5137 139.889 31.7617 140.022 32H138.92C138.811 31.7812 138.741 31.5254 138.71 31.2324ZM138.622 28.877C138.239 29.0332 137.665 29.166 136.899 29.2754C136.465 29.3379 136.159 29.4082 135.979 29.4863C135.799 29.5645 135.661 29.6797 135.563 29.832C135.465 29.9805 135.417 30.1465 135.417 30.3301C135.417 30.6113 135.522 30.8457 135.733 31.0332C135.948 31.2207 136.26 31.3145 136.67 31.3145C137.077 31.3145 137.438 31.2266 137.754 31.0508C138.071 30.8711 138.303 30.627 138.452 30.3184C138.565 30.0801 138.622 29.7285 138.622 29.2637V28.877Z" fill="white"/>
<path d="M145.246 32V31.2148C144.851 31.832 144.271 32.1406 143.506 32.1406C143.009 32.1406 142.552 32.0039 142.134 31.7305C141.72 31.457 141.398 31.0762 141.168 30.5879C140.941 30.0957 140.828 29.5312 140.828 28.8945C140.828 28.2734 140.931 27.7109 141.138 27.207C141.345 26.6992 141.656 26.3105 142.07 26.041C142.484 25.7715 142.947 25.6367 143.459 25.6367C143.834 25.6367 144.168 25.7168 144.461 25.877C144.754 26.0332 144.992 26.2383 145.175 26.4922V23.4102H146.224V32H145.246ZM141.912 28.8945C141.912 29.6914 142.08 30.2871 142.416 30.6816C142.752 31.0762 143.148 31.2734 143.605 31.2734C144.066 31.2734 144.457 31.0859 144.777 30.7109C145.101 30.332 145.263 29.7559 145.263 28.9824C145.263 28.1309 145.099 27.5059 144.771 27.1074C144.443 26.709 144.039 26.5098 143.558 26.5098C143.09 26.5098 142.697 26.7012 142.381 27.084C142.068 27.4668 141.912 28.0703 141.912 28.8945Z" fill="white"/>
<path d="M147.376 28.8887C147.376 27.7363 147.696 26.8828 148.337 26.3281C148.872 25.8672 149.524 25.6367 150.294 25.6367C151.149 25.6367 151.848 25.918 152.391 26.4805C152.934 27.0391 153.206 27.8125 153.206 28.8008C153.206 29.6016 153.085 30.2324 152.843 30.6934C152.604 31.1504 152.255 31.5059 151.794 31.7598C151.337 32.0137 150.837 32.1406 150.294 32.1406C149.423 32.1406 148.718 31.8613 148.179 31.3027C147.643 30.7441 147.376 29.9395 147.376 28.8887ZM148.46 28.8887C148.46 29.6855 148.634 30.2832 148.981 30.6816C149.329 31.0762 149.766 31.2734 150.294 31.2734C150.817 31.2734 151.253 31.0742 151.6 30.6758C151.948 30.2773 152.122 29.6699 152.122 28.8535C152.122 28.084 151.946 27.502 151.595 27.1074C151.247 26.709 150.813 26.5098 150.294 26.5098C149.766 26.5098 149.329 26.707 148.981 27.1016C148.634 27.4961 148.46 28.0918 148.46 28.8887Z" fill="white"/>
<path d="M153.906 30.1426L154.949 29.9785C155.008 30.3965 155.17 30.7168 155.435 30.9395C155.705 31.1621 156.08 31.2734 156.56 31.2734C157.045 31.2734 157.404 31.1758 157.639 30.9805C157.873 30.7812 157.99 30.5488 157.99 30.2832C157.99 30.0449 157.887 29.8574 157.68 29.7207C157.535 29.627 157.176 29.5078 156.601 29.3633C155.828 29.168 155.291 29 154.99 28.8594C154.693 28.7148 154.467 28.5176 154.31 28.2676C154.158 28.0137 154.082 27.7344 154.082 27.4297C154.082 27.1523 154.144 26.8965 154.269 26.6621C154.398 26.4238 154.572 26.2266 154.791 26.0703C154.955 25.9492 155.178 25.8477 155.459 25.7656C155.744 25.6797 156.049 25.6367 156.373 25.6367C156.861 25.6367 157.289 25.707 157.656 25.8477C158.027 25.9883 158.301 26.1797 158.476 26.4219C158.652 26.6602 158.773 26.9805 158.84 27.3828L157.809 27.5234C157.762 27.2031 157.625 26.9531 157.398 26.7734C157.176 26.5938 156.859 26.5039 156.449 26.5039C155.965 26.5039 155.619 26.584 155.412 26.7441C155.205 26.9043 155.101 27.0918 155.101 27.3066C155.101 27.4434 155.144 27.5664 155.23 27.6758C155.316 27.7891 155.451 27.8828 155.635 27.957C155.74 27.9961 156.051 28.0859 156.566 28.2266C157.312 28.4258 157.832 28.5898 158.125 28.7188C158.422 28.8438 158.654 29.0273 158.822 29.2695C158.99 29.5117 159.074 29.8125 159.074 30.1719C159.074 30.5234 158.971 30.8555 158.764 31.168C158.56 31.4766 158.266 31.7168 157.879 31.8887C157.492 32.0566 157.055 32.1406 156.566 32.1406C155.758 32.1406 155.141 31.9727 154.715 31.6367C154.293 31.3008 154.023 30.8027 153.906 30.1426Z" fill="white"/>
<path d="M167.582 28.6309V27.623L171.221 27.6172V30.8047C170.662 31.25 170.086 31.5859 169.492 31.8125C168.899 32.0352 168.289 32.1465 167.664 32.1465C166.82 32.1465 166.053 31.9668 165.361 31.6074C164.674 31.2441 164.154 30.7207 163.803 30.0371C163.451 29.3535 163.276 28.5898 163.276 27.7461C163.276 26.9102 163.449 26.1309 163.797 25.4082C164.149 24.6816 164.652 24.1426 165.309 23.791C165.965 23.4395 166.721 23.2637 167.576 23.2637C168.197 23.2637 168.758 23.3652 169.258 23.5684C169.762 23.7676 170.156 24.0469 170.442 24.4062C170.727 24.7656 170.944 25.2344 171.092 25.8125L170.067 26.0938C169.938 25.6562 169.777 25.3125 169.586 25.0625C169.395 24.8125 169.121 24.6133 168.766 24.4648C168.41 24.3125 168.016 24.2363 167.582 24.2363C167.063 24.2363 166.613 24.3164 166.235 24.4766C165.856 24.6328 165.549 24.8398 165.315 25.0977C165.084 25.3555 164.904 25.6387 164.776 25.9473C164.557 26.4785 164.447 27.0547 164.447 27.6758C164.447 28.4414 164.578 29.082 164.84 29.5977C165.106 30.1133 165.49 30.4961 165.994 30.7461C166.498 30.9961 167.033 31.1211 167.6 31.1211C168.092 31.1211 168.572 31.0273 169.041 30.8398C169.51 30.6484 169.865 30.4453 170.108 30.2305V28.6309H167.582Z" fill="white"/>
<path d="M176.908 29.9961L177.997 30.1309C177.825 30.7676 177.507 31.2617 177.042 31.6133C176.577 31.9648 175.984 32.1406 175.261 32.1406C174.351 32.1406 173.628 31.8613 173.093 31.3027C172.562 30.7402 172.296 29.9531 172.296 28.9414C172.296 27.8945 172.566 27.082 173.105 26.5039C173.644 25.9258 174.343 25.6367 175.202 25.6367C176.034 25.6367 176.714 25.9199 177.241 26.4863C177.769 27.0527 178.033 27.8496 178.033 28.877C178.033 28.9395 178.031 29.0332 178.027 29.1582H173.386C173.425 29.8418 173.618 30.3652 173.966 30.7285C174.314 31.0918 174.747 31.2734 175.267 31.2734C175.654 31.2734 175.984 31.1719 176.257 30.9688C176.531 30.7656 176.747 30.4414 176.908 29.9961ZM173.445 28.291H176.919C176.872 27.7676 176.74 27.375 176.521 27.1133C176.185 26.707 175.749 26.5039 175.214 26.5039C174.73 26.5039 174.322 26.666 173.99 26.9902C173.661 27.3145 173.48 27.748 173.445 28.291Z" fill="white"/>
<path d="M178.815 28.8887C178.815 27.7363 179.135 26.8828 179.776 26.3281C180.311 25.8672 180.963 25.6367 181.733 25.6367C182.588 25.6367 183.287 25.918 183.83 26.4805C184.373 27.0391 184.645 27.8125 184.645 28.8008C184.645 29.6016 184.524 30.2324 184.282 30.6934C184.043 31.1504 183.694 31.5059 183.233 31.7598C182.776 32.0137 182.276 32.1406 181.733 32.1406C180.862 32.1406 180.157 31.8613 179.618 31.3027C179.082 30.7441 178.815 29.9395 178.815 28.8887ZM179.899 28.8887C179.899 29.6855 180.073 30.2832 180.42 30.6816C180.768 31.0762 181.205 31.2734 181.733 31.2734C182.256 31.2734 182.692 31.0742 183.039 30.6758C183.387 30.2773 183.561 29.6699 183.561 28.8535C183.561 28.084 183.385 27.502 183.034 27.1074C182.686 26.709 182.252 26.5098 181.733 26.5098C181.205 26.5098 180.768 26.707 180.42 27.1016C180.073 27.4961 179.899 28.0918 179.899 28.8887Z" fill="white"/>
<path d="M189.122 32V23.4102H192.362C192.932 23.4102 193.368 23.4375 193.669 23.4922C194.09 23.5625 194.444 23.6973 194.729 23.8965C195.014 24.0918 195.243 24.3672 195.415 24.7227C195.59 25.0781 195.678 25.4688 195.678 25.8945C195.678 26.625 195.446 27.2441 194.981 27.752C194.516 28.2559 193.676 28.5078 192.462 28.5078H190.258V32H189.122ZM190.258 27.4941H192.479C193.214 27.4941 193.735 27.3574 194.044 27.084C194.352 26.8105 194.506 26.4258 194.506 25.9297C194.506 25.5703 194.415 25.2637 194.231 25.0098C194.051 24.752 193.813 24.582 193.516 24.5C193.325 24.4492 192.971 24.4238 192.456 24.4238H190.258V27.4941Z" fill="white"/>
<path d="M201.131 29.9961L202.22 30.1309C202.049 30.7676 201.73 31.2617 201.265 31.6133C200.801 31.9648 200.207 32.1406 199.484 32.1406C198.574 32.1406 197.851 31.8613 197.316 31.3027C196.785 30.7402 196.519 29.9531 196.519 28.9414C196.519 27.8945 196.789 27.082 197.328 26.5039C197.867 25.9258 198.566 25.6367 199.426 25.6367C200.258 25.6367 200.937 25.9199 201.465 26.4863C201.992 27.0527 202.256 27.8496 202.256 28.877C202.256 28.9395 202.254 29.0332 202.25 29.1582H197.609C197.648 29.8418 197.842 30.3652 198.189 30.7285C198.537 31.0918 198.97 31.2734 199.49 31.2734C199.877 31.2734 200.207 31.1719 200.48 30.9688C200.754 30.7656 200.97 30.4414 201.131 29.9961ZM197.668 28.291H201.142C201.095 27.7676 200.963 27.375 200.744 27.1133C200.408 26.707 199.972 26.5039 199.437 26.5039C198.953 26.5039 198.545 26.666 198.213 26.9902C197.885 27.3145 197.703 27.748 197.668 28.291Z" fill="white"/>
<path d="M203.419 32V25.7773H204.368V26.7207C204.61 26.2793 204.833 25.9883 205.036 25.8477C205.243 25.707 205.47 25.6367 205.716 25.6367C206.071 25.6367 206.432 25.75 206.8 25.9766L206.436 26.9551C206.179 26.8027 205.921 26.7266 205.663 26.7266C205.432 26.7266 205.225 26.7969 205.042 26.9375C204.858 27.0742 204.727 27.2656 204.649 27.5117C204.532 27.8867 204.474 28.2969 204.474 28.7422V32H203.419Z" fill="white"/>
<path d="M211.385 32V31.0859C210.9 31.7891 210.242 32.1406 209.41 32.1406C209.043 32.1406 208.699 32.0703 208.379 31.9297C208.062 31.7891 207.826 31.6133 207.67 31.4023C207.518 31.1875 207.41 30.9258 207.348 30.6172C207.305 30.4102 207.283 30.082 207.283 29.6328V25.7773H208.338V29.2285C208.338 29.7793 208.359 30.1504 208.402 30.3418C208.469 30.6191 208.609 30.8379 208.824 30.998C209.039 31.1543 209.305 31.2324 209.621 31.2324C209.938 31.2324 210.234 31.1523 210.512 30.9922C210.789 30.8281 210.984 30.6074 211.098 30.3301C211.215 30.0488 211.273 29.6426 211.273 29.1113V25.7773H212.328V32H211.385ZM209.17 25.0039L209.949 23.3633H211.332L210.043 25.0039H209.17Z" fill="white"/>
<path d="M30.2081 29.6702C30.3041 29.6702 30.3681 29.6702 30.3681 29.6702C30.3681 29.6702 30.3681 29.6702 30.4001 29.6702C30.4641 29.6702 31.8401 29.5172 32.6081 28.6602C33.5681 27.5889 33.9841 25.7523 33.1201 24.8647C32.6721 24.4362 32.1601 24.2525 31.6481 24.3443C31.1361 24.4362 30.6881 24.8035 30.4961 25.2932C30.4641 25.385 30.4961 25.5075 30.5921 25.5993C30.6881 25.6605 30.8161 25.6605 30.9121 25.5687C31.1361 25.385 31.3601 25.2932 31.5201 25.3544C31.6801 25.385 31.8081 25.5381 31.8721 25.7523C31.9361 25.936 31.9041 26.2115 31.7761 26.3951C31.7441 26.4563 31.6481 26.5482 31.5201 26.5788C31.1361 26.6094 30.5601 26.1809 29.9841 25.6911C29.4081 25.232 28.7361 24.681 27.9681 24.4056C26.9441 24.0076 24.1601 23.4261 22.1761 24.8341H22.1442C22.0802 24.8647 20.9602 25.6911 20.7042 26.5788C20.2882 27.4052 20.2562 28.1704 20.5442 28.8744C20.2882 29.0581 20.1602 29.3029 20.1602 29.5478C20.1602 30.0988 20.8322 30.5579 21.6962 30.6191C21.6002 30.7415 21.5682 30.8946 21.5682 31.0476C21.5682 31.6292 22.3041 32.1189 23.2641 32.1189C23.9681 32.1189 24.5441 31.8741 24.8001 31.5068C25.0561 31.8741 25.6321 32.1189 26.3361 32.1189C27.2961 32.1189 28.0321 31.6598 28.0321 31.0476C28.0321 30.8946 27.9681 30.7415 27.9041 30.6191C28.4481 30.5885 28.9601 30.4048 29.2161 30.0988C29.2481 30.0988 29.3121 30.0681 29.3441 30.0375C29.5041 29.8539 29.8881 29.7315 30.2081 29.6702ZM31.5841 28.8132C31.3281 28.9356 31.0721 29.0275 30.8801 29.0887H30.8481C31.0081 27.9255 30.3041 26.793 30.0161 26.3645C30.4321 26.7012 30.8161 26.9461 31.2001 27.0379C31.4561 27.3746 31.6801 27.9868 31.5841 28.8132ZM29.4721 29.3642C29.4081 29.2111 29.2481 28.905 28.9921 28.3847C28.6081 27.5889 27.7761 26.4869 25.9841 25.9666C23.5841 25.2626 22.2721 25.5993 21.6642 25.936C21.6962 25.9054 21.7282 25.8442 21.7922 25.8136C21.8242 25.8136 21.8562 25.7829 21.8882 25.7523C22.0802 25.5381 22.2721 25.385 22.4641 25.232C23.2961 24.9565 24.5761 24.8341 26.4321 25.3544C28.8961 26.089 29.6321 27.8031 29.8561 28.5071C29.9201 28.752 29.9841 29.0275 29.9841 29.2417C29.9521 29.2417 29.9521 29.2417 29.9201 29.2417C29.8881 29.2417 29.8241 29.2723 29.7921 29.3029C29.6961 29.2723 29.6001 29.3335 29.4721 29.3642ZM25.7281 27.0379C25.3761 27.1297 25.0561 27.2828 24.8641 27.497C24.5761 27.1909 24.0321 26.9767 23.3921 26.9767C23.1681 26.9767 22.9761 27.0073 22.7841 27.0379C23.3921 26.8236 24.1921 26.7624 24.9921 26.8849C25.2481 26.9155 25.5041 26.9767 25.7281 27.0379ZM23.3921 27.4664C24.0641 27.4664 24.5761 27.7725 24.5761 28.048C24.5761 28.201 24.4481 28.3541 24.1921 28.4459C24.1281 28.4765 24.0641 28.5071 24.0001 28.5377C23.8081 28.5989 23.6161 28.6295 23.3921 28.6295C22.7201 28.6295 22.2081 28.3235 22.2081 28.048C22.2401 27.7725 22.7201 27.4664 23.3921 27.4664ZM24.1921 29.0275C24.2561 28.9968 24.3201 28.9968 24.3841 28.9662C24.5121 28.9356 24.6401 28.9356 24.8001 28.9356C25.5041 28.9356 25.9841 29.2417 25.9841 29.5172C25.9841 29.7927 25.5041 30.0988 24.8001 30.0988C24.0961 30.0988 23.6161 29.7927 23.6161 29.5172C23.6161 29.3335 23.8401 29.1499 24.1921 29.0275ZM25.1521 28.048C25.1521 27.7725 25.6321 27.4664 26.3361 27.4664C26.4641 27.4664 26.5601 27.4664 26.6881 27.497C27.1681 27.5582 27.5201 27.8031 27.5201 28.0174V28.048C27.5201 28.2316 27.2961 28.4153 26.9441 28.5377C26.7521 28.5989 26.5601 28.6295 26.3361 28.6295C25.6321 28.5989 25.1521 28.2928 25.1521 28.048ZM21.5682 28.4765C21.5362 28.3847 21.5362 28.2928 21.5682 28.1704C21.6002 27.9255 21.7282 27.7113 21.9202 27.5276C21.7922 27.6807 21.7282 27.8337 21.7282 28.0174C21.7282 28.1704 21.7922 28.3235 21.8562 28.4459C21.7602 28.4459 21.6642 28.4765 21.5682 28.4765ZM27.9041 28.4459C27.9041 28.4765 27.8721 28.4765 27.9041 28.4459C27.8721 28.4459 27.8721 28.4459 27.9041 28.4459ZM20.7042 29.5172C20.7042 29.3948 20.8322 29.2417 21.0242 29.1499C21.1842 29.0581 21.3442 29.0275 21.5362 28.9968C21.6322 28.9662 21.7602 28.9662 21.8562 28.9662C22.5601 28.9662 23.0401 29.2723 23.0401 29.5478C23.0401 29.7008 22.9121 29.8233 22.8161 29.8845C22.5921 30.0375 22.2401 30.1294 21.8882 30.1294C21.1842 30.0988 20.7042 29.7927 20.7042 29.5172ZM23.2641 31.568C22.5601 31.568 22.0801 31.2925 22.0801 31.017C22.0801 30.7415 22.5921 30.4661 23.2641 30.4661V30.4355C23.2641 30.4355 23.2641 30.4355 23.2961 30.4355C23.6481 30.4355 23.9681 30.5273 24.1921 30.6497C24.2881 30.7109 24.4481 30.8334 24.4481 30.9864C24.4481 31.2925 23.9681 31.568 23.2641 31.568ZM26.3361 31.568C25.6321 31.568 25.1521 31.2619 25.1521 30.9864C25.1521 30.8946 25.1841 30.8028 25.2801 30.7109C25.5041 30.5273 25.8881 30.4048 26.3041 30.4048C26.5281 30.4048 26.7201 30.4355 26.9121 30.4967C27.2641 30.5885 27.4881 30.8028 27.4881 30.9864C27.4881 31.2619 27.0081 31.568 26.3361 31.568ZM28.8321 29.6702C28.7041 29.8539 28.2881 30.0681 27.7121 30.0681C27.5201 30.0681 27.3281 30.0375 27.1681 30.0069C26.7841 29.9151 26.5601 29.7008 26.5601 29.5172C26.5601 29.3335 26.7841 29.1499 27.1361 29.0275C27.3281 28.9662 27.5201 28.9356 27.7441 28.9356C27.8721 28.9356 28.0001 28.9356 28.1281 28.9662C28.5761 29.0581 28.8961 29.2723 28.8961 29.4866C28.8961 29.5784 28.8641 29.609 28.8321 29.6702Z" fill="white"/>
<path d="M43.9999 23.7927V10.3555C43.9999 10.2025 43.9359 10.0494 43.8079 9.9882C43.6799 9.89637 43.5199 9.89637 43.3919 9.9882L41.9519 10.784V6.03969C41.9519 5.88665 41.8559 5.7336 41.7279 5.67238C41.5679 5.61117 41.4079 5.61117 41.2799 5.67238L34.3679 9.83515C34.3039 9.83515 34.2399 9.83515 34.1759 9.86576C32.9919 10.2331 31.8719 10.4167 30.8799 10.4167C27.5519 10.4167 26.4639 8.39655 26.4319 8.30472C26.3679 8.15168 26.2079 8.02925 26.0479 8.02925C25.8879 8.02925 25.7279 8.15168 25.6639 8.30472C25.6319 8.39655 24.5439 10.3861 21.216 10.3861C20.224 10.3861 19.104 10.2025 17.92 9.86576C17.888 9.86576 17.856 9.86576 17.824 9.86576L10.912 5.67238C10.784 5.58056 10.56 5.58056 10.4 5.67238C10.24 5.7336 10.112 5.88665 10.112 6.03969V10.7534L8.704 9.95759C8.576 9.89637 8.352 9.89637 8.224 9.95759C8.128 10.08 8 10.2025 8 10.3555V23.7927C8 23.9763 8.032 27.1902 10.816 29.9144C13.312 32.3631 17.216 33.5874 22.4 33.5874C22.432 33.5874 22.496 33.5874 22.528 33.5568C24.4799 34.1078 25.5999 34.5669 25.5999 36.0667C25.5999 36.281 25.7919 36.4646 26.0159 36.4646C26.2399 36.4646 26.4319 36.281 26.4319 36.0667C26.4319 34.5363 27.5519 34.0772 29.5359 33.5262C29.5999 33.5568 29.6319 33.5568 29.6959 33.5568C34.8799 33.5568 38.7199 32.3325 41.2159 29.8838C44.0639 27.1902 43.9999 23.9763 43.9999 23.7927ZM19.52 19.8442C20.128 19.6299 20.352 18.5586 20.352 18.5586C20.352 18.5586 21.248 19.1096 21.92 18.8341C21.92 19.0789 21.824 19.5381 21.824 19.5381C21.824 19.5381 21.728 19.8442 21.92 20.2115C22.016 20.3951 22.08 20.793 22.112 21.0379C21.792 21.0379 21.472 21.0379 21.12 21.0379C20.544 21.0379 20.032 21.0379 19.52 21.0685C19.488 20.5788 19.52 20.3339 19.52 19.8442ZM30.2399 19.0177H31.3919C31.3279 19.5687 31.3279 20.1503 31.5199 21.0073C31.4879 21.0073 31.4879 21.0073 31.4559 21.0073L30.1119 20.8849C30.2719 20.1196 30.3039 19.5993 30.2399 19.0177ZM39.5519 20.8236C38.7519 21.5889 37.6639 21.9868 36.3199 21.9868C35.9999 21.0685 35.8399 20.2115 35.7759 19.4156L41.0239 16.6303C41.0559 17.0588 41.0239 19.385 39.5519 20.8236ZM11.136 16.6303L16.32 19.385C16.288 20.2115 16.128 21.0685 15.776 22.0174C14.464 22.0174 13.376 21.6195 12.608 20.8542C11.168 19.4156 11.136 17.0588 11.136 16.6303ZM43.1039 11.0901V19.4463L40.7999 20.6706C41.9839 18.9259 41.9519 16.7221 41.9519 16.5384V11.7635L43.1039 11.0901ZM40.9599 11.2431L37.0239 13.3551C36.7999 13.1103 36.1919 12.3757 34.9119 10.4779L40.9599 6.8049C40.9599 6.83551 40.9599 11.2431 40.9599 11.2431ZM30.7839 11.2431C31.7759 11.2431 32.9279 11.0901 34.0799 10.7534C35.3279 12.6511 36.0319 13.5082 36.3519 13.8755C35.7439 14.7937 34.0799 17.8546 35.3279 21.8031C34.6879 21.2828 33.5039 21.0685 32.0319 21.0379C31.8399 20.1809 31.8399 19.5993 31.9039 19.0483H34.0799C34.3039 19.0483 34.2399 18.681 34.2399 18.375V16.4466C34.2399 14.9774 33.4399 14.8856 33.4399 14.8856C33.4399 14.8856 32.9279 14.8244 32.6719 14.1204C32.4159 13.447 31.9999 12.8654 31.3599 12.8042C30.7519 12.743 29.7279 13.2327 28.9279 13.6306C28.4479 13.8755 28.4159 14.2428 28.3519 14.7325C28.1919 15.9263 27.7119 15.865 27.7119 15.865C27.4879 15.865 27.2959 16.1099 27.2959 16.416V18.3443C27.2959 18.6504 27.4879 19.0177 27.7119 19.0177H29.7599C29.8239 19.5687 29.6959 20.1196 29.4719 21.0073C28.0319 21.0685 26.9439 21.3134 26.2079 21.8643V9.62089C27.0079 10.3249 28.4159 11.2431 30.7839 11.2431ZM25.3439 9.92698V21.6501C24.7679 21.2828 23.8399 21.0991 22.688 21.0379C22.56 20.4563 22.592 19.0789 22.752 18.681C23.6799 18.4974 23.7119 17.5791 23.7759 16.8139C23.8079 16.263 23.5839 14.2734 23.5839 14.2734C23.6799 14.2122 24.0639 14.1204 24.1599 14.0897C24.2879 14.0897 24.3839 14.0285 24.4479 13.9061C24.4799 13.7531 24.5439 13.5388 24.4799 13.4776C24.4159 13.3858 23.9679 13.3551 23.8719 13.2021C23.6479 12.9878 23.4559 12.8348 23.2319 12.8654C22.944 12.896 22.688 12.8654 22.528 13.1715C22.272 12.9878 22.016 13.2327 21.728 13.1409C21.728 13.1409 21.664 14.0591 22.656 13.9673L22.752 16.3854C22.752 16.3854 22.816 16.8751 22.112 16.7527C21.568 16.6609 20.288 16.1711 19.68 16.3548C19.2 16.4772 18.72 16.7221 18.4 17.6403C18.112 18.5892 18.592 18.2525 18.592 18.2525L19.104 17.9158C19.104 17.9158 19.456 18.7423 19.04 19.2014C18.72 19.5687 18.848 19.8442 18.848 19.8442C18.848 19.8442 18.976 20.6706 18.976 21.0991C18.016 21.1909 17.248 21.3746 16.768 21.7419C17.984 17.824 16.32 14.7937 15.712 13.8755C16.064 13.5082 16.704 12.6511 17.984 10.7534C19.136 11.0901 20.224 11.2431 21.216 11.2431C23.2319 11.2431 24.5119 10.5698 25.3439 9.92698ZM11.136 6.83551L17.12 10.4779C15.872 12.3451 15.296 13.0797 15.04 13.3551L11.136 11.2431V6.83551ZM10.144 11.7635V16.5384C10.144 16.7527 10.08 18.9259 11.264 20.6706L8.928 19.4463V11.0901L10.144 11.7635ZM9.184 25.1395L14.944 28.1697C15.424 29.5471 16.512 30.649 18.08 31.7815C18.496 32.0876 18.976 32.3631 19.456 32.5773C16 32.1794 13.344 31.1081 11.52 29.3328C10.048 27.8636 9.408 26.2414 9.184 25.1395ZM26.0479 34.5363C25.3439 33.4956 23.9039 33.0977 22.4 32.6998C21.088 32.3325 19.712 31.9346 18.592 31.1387C15.744 29.0267 14.688 27.2821 16.224 23.0887H35.8399C37.4079 27.2821 36.3519 29.0267 33.4719 31.1387C32.3519 31.9652 31.0079 32.3325 29.6639 32.6998C28.1919 33.0671 26.7519 33.465 26.0479 34.5363ZM40.6719 29.3022C38.8159 31.1081 36.1279 32.21 32.6399 32.5773C33.1199 32.3631 33.5999 32.1182 34.0159 31.7815C35.5519 30.649 36.6399 29.5777 37.1199 28.2003C37.1519 28.2003 37.1839 28.1697 37.2159 28.1697L42.9759 25.1395C42.7519 26.2414 42.1439 27.8636 40.6719 29.3022Z" fill="white"/>
<path d="M25.9845 7.75442C28.6085 7.72381 30.6885 6.46885 30.6885 4.87721C30.6885 3.28556 28.6085 2 25.9845 2C23.3605 2 21.3125 3.25495 21.3125 4.8466C21.3125 6.46885 23.3605 7.72381 25.9845 7.75442ZM25.9845 3.0713C27.3285 3.0713 28.3205 3.59165 28.3205 4.23443C28.3205 4.72416 27.7765 5.15269 26.9445 5.33634C26.1445 5.58121 26.4325 5.85668 26.0165 6.10155C25.6005 5.85668 25.9205 5.58121 25.0885 5.33634C24.2245 5.15269 23.6805 4.72416 23.6805 4.23443C23.6805 3.59165 24.6725 3.0713 25.9845 3.0713Z" fill="white"/>
</svg>
