<svg width="116" height="40" viewBox="0 0 116 40" fill="none" xmlns="http://www.w3.org/2000/svg">
<rect x="52" y="2" width="1" height="36" fill="white"/>
<path d="M66.9453 20.6309V19.623L70.584 19.6172V22.8047C70.0254 23.25 69.4492 23.5859 68.8555 23.8125C68.2617 24.0352 67.6523 24.1465 67.0273 24.1465C66.1836 24.1465 65.416 23.9668 64.7246 23.6074C64.0371 23.2441 63.5176 22.7207 63.166 22.0371C62.8145 21.3535 62.6387 20.5898 62.6387 19.7461C62.6387 18.9102 62.8125 18.1309 63.1602 17.4082C63.5117 16.6816 64.0156 16.1426 64.6719 15.791C65.3281 15.4395 66.084 15.2637 66.9395 15.2637C67.5605 15.2637 68.1211 15.3652 68.6211 15.5684C69.125 15.7676 69.5195 16.0469 69.8047 16.4062C70.0898 16.7656 70.3066 17.2344 70.4551 17.8125L69.4297 18.0938C69.3008 17.6562 69.1406 17.3125 68.9492 17.0625C68.7578 16.8125 68.4844 16.6133 68.1289 16.4648C67.7734 16.3125 67.3789 16.2363 66.9453 16.2363C66.4258 16.2363 65.9766 16.3164 65.5977 16.4766C65.2188 16.6328 64.9121 16.8398 64.6777 17.0977C64.4473 17.3555 64.2676 17.6387 64.1387 17.9473C63.9199 18.4785 63.8105 19.0547 63.8105 19.6758C63.8105 20.4414 63.9414 21.082 64.2031 21.5977C64.4688 22.1133 64.8535 22.4961 65.3574 22.7461C65.8613 22.9961 66.3965 23.1211 66.9629 23.1211C67.4551 23.1211 67.9355 23.0273 68.4043 22.8398C68.873 22.6484 69.2285 22.4453 69.4707 22.2305V20.6309H66.9453ZM76.2706 21.9961L77.3605 22.1309C77.1886 22.7676 76.8702 23.2617 76.4054 23.6133C75.9405 23.9648 75.3468 24.1406 74.6241 24.1406C73.714 24.1406 72.9913 23.8613 72.4562 23.3027C71.9249 22.7402 71.6593 21.9531 71.6593 20.9414C71.6593 19.8945 71.9288 19.082 72.4679 18.5039C73.007 17.9258 73.7062 17.6367 74.5655 17.6367C75.3976 17.6367 76.0773 17.9199 76.6046 18.4863C77.132 19.0527 77.3956 19.8496 77.3956 20.877C77.3956 20.9395 77.3937 21.0332 77.3898 21.1582H72.7491C72.7882 21.8418 72.9816 22.3652 73.3292 22.7285C73.6769 23.0918 74.1105 23.2734 74.63 23.2734C75.0167 23.2734 75.3468 23.1719 75.6202 22.9688C75.8937 22.7656 76.1105 22.4414 76.2706 21.9961ZM72.8077 20.291H76.2823C76.2355 19.7676 76.1027 19.375 75.8839 19.1133C75.548 18.707 75.1124 18.5039 74.5773 18.5039C74.0929 18.5039 73.6847 18.666 73.3527 18.9902C73.0245 19.3145 72.8429 19.748 72.8077 20.291ZM78.178 20.8887C78.178 19.7363 78.4983 18.8828 79.1389 18.3281C79.6741 17.8672 80.3264 17.6367 81.0959 17.6367C81.9514 17.6367 82.6506 17.918 83.1936 18.4805C83.7366 19.0391 84.008 19.8125 84.008 20.8008C84.008 21.6016 83.887 22.2324 83.6448 22.6934C83.4065 23.1504 83.0569 23.5059 82.5959 23.7598C82.1389 24.0137 81.6389 24.1406 81.0959 24.1406C80.2248 24.1406 79.5198 23.8613 78.9807 23.3027C78.4455 22.7441 78.178 21.9395 78.178 20.8887ZM79.262 20.8887C79.262 21.6855 79.4358 22.2832 79.7834 22.6816C80.1311 23.0762 80.5686 23.2734 81.0959 23.2734C81.6194 23.2734 82.0549 23.0742 82.4026 22.6758C82.7502 22.2773 82.9241 21.6699 82.9241 20.8535C82.9241 20.084 82.7483 19.502 82.3967 19.1074C82.0491 18.709 81.6155 18.5098 81.0959 18.5098C80.5686 18.5098 80.1311 18.707 79.7834 19.1016C79.4358 19.4961 79.262 20.0918 79.262 20.8887ZM88.4848 24V15.4102H91.7251C92.2954 15.4102 92.7309 15.4375 93.0317 15.4922C93.4536 15.5625 93.8071 15.6973 94.0923 15.8965C94.3774 16.0918 94.6059 16.3672 94.7778 16.7227C94.9536 17.0781 95.0415 17.4688 95.0415 17.8945C95.0415 18.625 94.8091 19.2441 94.3442 19.752C93.8794 20.2559 93.0395 20.5078 91.8247 20.5078H89.6216V24H88.4848ZM89.6216 19.4941H91.8423C92.5766 19.4941 93.0981 19.3574 93.4067 19.084C93.7153 18.8105 93.8696 18.4258 93.8696 17.9297C93.8696 17.5703 93.7778 17.2637 93.5942 17.0098C93.4145 16.752 93.1763 16.582 92.8794 16.5C92.688 16.4492 92.3345 16.4238 91.8188 16.4238H89.6216V19.4941ZM100.494 21.9961L101.584 22.1309C101.412 22.7676 101.093 23.2617 100.629 23.6133C100.164 23.9648 99.5699 24.1406 98.8473 24.1406C97.9371 24.1406 97.2145 23.8613 96.6793 23.3027C96.148 22.7402 95.8824 21.9531 95.8824 20.9414C95.8824 19.8945 96.152 19.082 96.691 18.5039C97.2301 17.9258 97.9293 17.6367 98.7887 17.6367C99.6207 17.6367 100.3 17.9199 100.828 18.4863C101.355 19.0527 101.619 19.8496 101.619 20.877C101.619 20.9395 101.617 21.0332 101.613 21.1582H96.9723C97.0113 21.8418 97.2047 22.3652 97.5523 22.7285C97.9 23.0918 98.3336 23.2734 98.8531 23.2734C99.2398 23.2734 99.5699 23.1719 99.8434 22.9688C100.117 22.7656 100.334 22.4414 100.494 21.9961ZM97.0309 20.291H100.505C100.459 19.7676 100.326 19.375 100.107 19.1133C99.7711 18.707 99.3355 18.5039 98.8004 18.5039C98.316 18.5039 97.9078 18.666 97.5758 18.9902C97.2477 19.3145 97.066 19.748 97.0309 20.291ZM102.782 24V17.7773H103.731V18.7207C103.973 18.2793 104.196 17.9883 104.399 17.8477C104.606 17.707 104.833 17.6367 105.079 17.6367C105.434 17.6367 105.796 17.75 106.163 17.9766L105.8 18.9551C105.542 18.8027 105.284 18.7266 105.026 18.7266C104.796 18.7266 104.589 18.7969 104.405 18.9375C104.221 19.0742 104.091 19.2656 104.012 19.5117C103.895 19.8867 103.837 20.2969 103.837 20.7422V24H102.782ZM110.748 24V23.0859C110.264 23.7891 109.605 24.1406 108.773 24.1406C108.406 24.1406 108.062 24.0703 107.742 23.9297C107.426 23.7891 107.189 23.6133 107.033 23.4023C106.881 23.1875 106.773 22.9258 106.711 22.6172C106.668 22.4102 106.646 22.082 106.646 21.6328V17.7773H107.701V21.2285C107.701 21.7793 107.722 22.1504 107.765 22.3418C107.832 22.6191 107.972 22.8379 108.187 22.998C108.402 23.1543 108.668 23.2324 108.984 23.2324C109.301 23.2324 109.597 23.1523 109.875 22.9922C110.152 22.8281 110.347 22.6074 110.461 22.3301C110.578 22.0488 110.637 21.6426 110.637 21.1113V17.7773H111.691V24H110.748ZM108.533 17.0039L109.312 15.3633H110.695L109.406 17.0039H108.533Z" fill="white"/>
<path d="M30.2081 30.6702C30.3041 30.6702 30.3681 30.6702 30.3681 30.6702C30.3681 30.6702 30.3681 30.6702 30.4001 30.6702C30.4641 30.6702 31.8401 30.5172 32.6081 29.6602C33.5681 28.5889 33.9841 26.7523 33.1201 25.8647C32.6721 25.4362 32.1601 25.2525 31.6481 25.3443C31.1361 25.4362 30.6881 25.8035 30.4961 26.2932C30.4641 26.385 30.4961 26.5075 30.5921 26.5993C30.6881 26.6605 30.8161 26.6605 30.9121 26.5687C31.1361 26.385 31.3601 26.2932 31.5201 26.3544C31.6801 26.385 31.8081 26.5381 31.8721 26.7523C31.9361 26.936 31.9041 27.2115 31.7761 27.3951C31.7441 27.4563 31.6481 27.5482 31.5201 27.5788C31.1361 27.6094 30.5601 27.1809 29.9841 26.6911C29.4081 26.232 28.7361 25.681 27.9681 25.4056C26.9441 25.0076 24.1601 24.4261 22.1761 25.8341H22.1442C22.0802 25.8647 20.9602 26.6911 20.7042 27.5788C20.2882 28.4052 20.2562 29.1704 20.5442 29.8744C20.2882 30.0581 20.1602 30.3029 20.1602 30.5478C20.1602 31.0988 20.8322 31.5579 21.6962 31.6191C21.6002 31.7415 21.5682 31.8946 21.5682 32.0476C21.5682 32.6292 22.3041 33.1189 23.2641 33.1189C23.9681 33.1189 24.5441 32.8741 24.8001 32.5068C25.0561 32.8741 25.6321 33.1189 26.3361 33.1189C27.2961 33.1189 28.0321 32.6598 28.0321 32.0476C28.0321 31.8946 27.9681 31.7415 27.9041 31.6191C28.4481 31.5885 28.9601 31.4048 29.2161 31.0988C29.2481 31.0988 29.3121 31.0681 29.3441 31.0375C29.5041 30.8539 29.8881 30.7315 30.2081 30.6702ZM31.5841 29.8132C31.3281 29.9356 31.0721 30.0275 30.8801 30.0887H30.8481C31.0081 28.9255 30.3041 27.793 30.0161 27.3645C30.4321 27.7012 30.8161 27.9461 31.2001 28.0379C31.4561 28.3746 31.6801 28.9868 31.5841 29.8132ZM29.4721 30.3642C29.4081 30.2111 29.2481 29.905 28.9921 29.3847C28.6081 28.5889 27.7761 27.4869 25.9841 26.9666C23.5841 26.2626 22.2721 26.5993 21.6642 26.936C21.6962 26.9054 21.7282 26.8442 21.7922 26.8136C21.8242 26.8136 21.8562 26.7829 21.8882 26.7523C22.0802 26.5381 22.2721 26.385 22.4641 26.232C23.2961 25.9565 24.5761 25.8341 26.4321 26.3544C28.8961 27.089 29.6321 28.8031 29.8561 29.5071C29.9201 29.752 29.9841 30.0275 29.9841 30.2417C29.9521 30.2417 29.9521 30.2417 29.9201 30.2417C29.8881 30.2417 29.8241 30.2723 29.7921 30.3029C29.6961 30.2723 29.6001 30.3335 29.4721 30.3642ZM25.7281 28.0379C25.3761 28.1297 25.0561 28.2828 24.8641 28.497C24.5761 28.1909 24.0321 27.9767 23.3921 27.9767C23.1681 27.9767 22.9761 28.0073 22.7841 28.0379C23.3921 27.8236 24.1921 27.7624 24.9921 27.8849C25.2481 27.9155 25.5041 27.9767 25.7281 28.0379ZM23.3921 28.4664C24.0641 28.4664 24.5761 28.7725 24.5761 29.048C24.5761 29.201 24.4481 29.3541 24.1921 29.4459C24.1281 29.4765 24.0641 29.5071 24.0001 29.5377C23.8081 29.5989 23.6161 29.6295 23.3921 29.6295C22.7201 29.6295 22.2081 29.3235 22.2081 29.048C22.2401 28.7725 22.7201 28.4664 23.3921 28.4664ZM24.1921 30.0275C24.2561 29.9968 24.3201 29.9968 24.3841 29.9662C24.5121 29.9356 24.6401 29.9356 24.8001 29.9356C25.5041 29.9356 25.9841 30.2417 25.9841 30.5172C25.9841 30.7927 25.5041 31.0988 24.8001 31.0988C24.0961 31.0988 23.6161 30.7927 23.6161 30.5172C23.6161 30.3335 23.8401 30.1499 24.1921 30.0275ZM25.1521 29.048C25.1521 28.7725 25.6321 28.4664 26.3361 28.4664C26.4641 28.4664 26.5601 28.4664 26.6881 28.497C27.1681 28.5582 27.5201 28.8031 27.5201 29.0174V29.048C27.5201 29.2316 27.2961 29.4153 26.9441 29.5377C26.7521 29.5989 26.5601 29.6295 26.3361 29.6295C25.6321 29.5989 25.1521 29.2928 25.1521 29.048ZM21.5682 29.4765C21.5362 29.3847 21.5362 29.2928 21.5682 29.1704C21.6002 28.9255 21.7282 28.7113 21.9202 28.5276C21.7922 28.6807 21.7282 28.8337 21.7282 29.0174C21.7282 29.1704 21.7922 29.3235 21.8562 29.4459C21.7602 29.4459 21.6642 29.4765 21.5682 29.4765ZM27.9041 29.4459C27.9041 29.4765 27.8721 29.4765 27.9041 29.4459C27.8721 29.4459 27.8721 29.4459 27.9041 29.4459ZM20.7042 30.5172C20.7042 30.3948 20.8322 30.2417 21.0242 30.1499C21.1842 30.0581 21.3442 30.0275 21.5362 29.9968C21.6322 29.9662 21.7602 29.9662 21.8562 29.9662C22.5601 29.9662 23.0401 30.2723 23.0401 30.5478C23.0401 30.7008 22.9121 30.8233 22.8161 30.8845C22.5921 31.0375 22.2401 31.1294 21.8882 31.1294C21.1842 31.0988 20.7042 30.7927 20.7042 30.5172ZM23.2641 32.568C22.5601 32.568 22.0801 32.2925 22.0801 32.017C22.0801 31.7415 22.5921 31.4661 23.2641 31.4661V31.4355C23.2641 31.4355 23.2641 31.4355 23.2961 31.4355C23.6481 31.4355 23.9681 31.5273 24.1921 31.6497C24.2881 31.7109 24.4481 31.8334 24.4481 31.9864C24.4481 32.2925 23.9681 32.568 23.2641 32.568ZM26.3361 32.568C25.6321 32.568 25.1521 32.2619 25.1521 31.9864C25.1521 31.8946 25.1841 31.8028 25.2801 31.7109C25.5041 31.5273 25.8881 31.4048 26.3041 31.4048C26.5281 31.4048 26.7201 31.4355 26.9121 31.4967C27.2641 31.5885 27.4881 31.8028 27.4881 31.9864C27.4881 32.2619 27.0081 32.568 26.3361 32.568ZM28.8321 30.6702C28.7041 30.8539 28.2881 31.0681 27.7121 31.0681C27.5201 31.0681 27.3281 31.0375 27.1681 31.0069C26.7841 30.9151 26.5601 30.7008 26.5601 30.5172C26.5601 30.3335 26.7841 30.1499 27.1361 30.0275C27.3281 29.9662 27.5201 29.9356 27.7441 29.9356C27.8721 29.9356 28.0001 29.9356 28.1281 29.9662C28.5761 30.0581 28.8961 30.2723 28.8961 30.4866C28.8961 30.5784 28.8641 30.609 28.8321 30.6702Z" fill="white"/>
<path d="M43.9999 24.7936V11.3565C43.9999 11.2034 43.9359 11.0504 43.8079 10.9892C43.6799 10.8973 43.5199 10.8973 43.3919 10.9892L41.9519 11.785V7.04066C41.9519 6.88762 41.8559 6.73458 41.7279 6.67336C41.5679 6.61214 41.4079 6.61214 41.2799 6.67336L34.3679 10.8361C34.3039 10.8361 34.2399 10.8361 34.1759 10.8667C32.9919 11.234 31.8719 11.4177 30.8799 11.4177C27.5519 11.4177 26.4639 9.39753 26.4319 9.3057C26.3679 9.15266 26.2079 9.03022 26.0479 9.03022C25.8879 9.03022 25.7279 9.15266 25.6639 9.3057C25.6319 9.39753 24.5439 11.3871 21.216 11.3871C20.224 11.3871 19.104 11.2034 17.92 10.8667C17.888 10.8667 17.856 10.8667 17.824 10.8667L10.912 6.67336C10.784 6.58154 10.56 6.58154 10.4 6.67336C10.24 6.73458 10.112 6.88762 10.112 7.04066V11.7544L8.704 10.9586C8.576 10.8973 8.352 10.8973 8.224 10.9586C8.128 11.081 8 11.2034 8 11.3565V24.7936C8 24.9773 8.032 28.1912 10.816 30.9154C13.312 33.3641 17.216 34.5884 22.4 34.5884C22.432 34.5884 22.496 34.5884 22.528 34.5578C24.4799 35.1087 25.5999 35.5679 25.5999 37.0677C25.5999 37.282 25.7919 37.4656 26.0159 37.4656C26.2399 37.4656 26.4319 37.282 26.4319 37.0677C26.4319 35.5373 27.5519 35.0781 29.5359 34.5272C29.5999 34.5578 29.6319 34.5578 29.6959 34.5578C34.8799 34.5578 38.7199 33.3334 41.2159 30.8848C44.0639 28.1912 43.9999 24.9773 43.9999 24.7936ZM19.52 20.8451C20.128 20.6309 20.352 19.5596 20.352 19.5596C20.352 19.5596 21.248 20.1105 21.92 19.8351C21.92 20.0799 21.824 20.5391 21.824 20.5391C21.824 20.5391 21.728 20.8451 21.92 21.2124C22.016 21.3961 22.08 21.794 22.112 22.0389C21.792 22.0389 21.472 22.0389 21.12 22.0389C20.544 22.0389 20.032 22.0389 19.52 22.0695C19.488 21.5797 19.52 21.3349 19.52 20.8451ZM30.2399 20.0187H31.3919C31.3279 20.5697 31.3279 21.1512 31.5199 22.0083C31.4879 22.0083 31.4879 22.0083 31.4559 22.0083L30.1119 21.8858C30.2719 21.1206 30.3039 20.6003 30.2399 20.0187ZM39.5519 21.8246C38.7519 22.5898 37.6639 22.9877 36.3199 22.9877C35.9999 22.0695 35.8399 21.2124 35.7759 20.4166L41.0239 17.6312C41.0559 18.0598 41.0239 20.386 39.5519 21.8246ZM11.136 17.6312L16.32 20.386C16.288 21.2124 16.128 22.0695 15.776 23.0184C14.464 23.0184 13.376 22.6204 12.608 21.8552C11.168 20.4166 11.136 18.0598 11.136 17.6312ZM43.1039 12.0911V20.4472L40.7999 21.6716C41.9839 19.9269 41.9519 17.7231 41.9519 17.5394V12.7645L43.1039 12.0911ZM40.9599 12.2441L37.0239 14.3561C36.7999 14.1113 36.1919 13.3766 34.9119 11.4789L40.9599 7.80588C40.9599 7.83649 40.9599 12.2441 40.9599 12.2441ZM30.7839 12.2441C31.7759 12.2441 32.9279 12.0911 34.0799 11.7544C35.3279 13.6521 36.0319 14.5092 36.3519 14.8765C35.7439 15.7947 34.0799 18.8556 35.3279 22.8041C34.6879 22.2837 33.5039 22.0695 32.0319 22.0389C31.8399 21.1818 31.8399 20.6003 31.9039 20.0493H34.0799C34.3039 20.0493 34.2399 19.682 34.2399 19.3759V17.4476C34.2399 15.9784 33.4399 15.8865 33.4399 15.8865C33.4399 15.8865 32.9279 15.8253 32.6719 15.1213C32.4159 14.4479 31.9999 13.8664 31.3599 13.8052C30.7519 13.7439 29.7279 14.2337 28.9279 14.6316C28.4479 14.8765 28.4159 15.2438 28.3519 15.7335C28.1919 16.9272 27.7119 16.866 27.7119 16.866C27.4879 16.866 27.2959 17.1109 27.2959 17.417V19.3453C27.2959 19.6514 27.4879 20.0187 27.7119 20.0187H29.7599C29.8239 20.5697 29.6959 21.1206 29.4719 22.0083C28.0319 22.0695 26.9439 22.3144 26.2079 22.8653V10.6219C27.0079 11.3259 28.4159 12.2441 30.7839 12.2441ZM25.3439 10.928V22.651C24.7679 22.2837 23.8399 22.1001 22.688 22.0389C22.56 21.4573 22.592 20.0799 22.752 19.682C23.6799 19.4984 23.7119 18.5801 23.7759 17.8149C23.8079 17.2639 23.5839 15.2744 23.5839 15.2744C23.6799 15.2132 24.0639 15.1213 24.1599 15.0907C24.2879 15.0907 24.3839 15.0295 24.4479 14.9071C24.4799 14.754 24.5439 14.5398 24.4799 14.4786C24.4159 14.3867 23.9679 14.3561 23.8719 14.2031C23.6479 13.9888 23.4559 13.8358 23.2319 13.8664C22.944 13.897 22.688 13.8664 22.528 14.1725C22.272 13.9888 22.016 14.2337 21.728 14.1419C21.728 14.1419 21.664 15.0601 22.656 14.9683L22.752 17.3864C22.752 17.3864 22.816 17.8761 22.112 17.7537C21.568 17.6618 20.288 17.1721 19.68 17.3558C19.2 17.4782 18.72 17.7231 18.4 18.6413C18.112 19.5902 18.592 19.2535 18.592 19.2535L19.104 18.9168C19.104 18.9168 19.456 19.7432 19.04 20.2024C18.72 20.5697 18.848 20.8451 18.848 20.8451C18.848 20.8451 18.976 21.6716 18.976 22.1001C18.016 22.1919 17.248 22.3756 16.768 22.7429C17.984 18.825 16.32 15.7947 15.712 14.8765C16.064 14.5092 16.704 13.6521 17.984 11.7544C19.136 12.0911 20.224 12.2441 21.216 12.2441C23.232 12.2441 24.5119 11.5707 25.3439 10.928ZM11.136 7.83649L17.12 11.4789C15.872 13.346 15.296 14.0806 15.04 14.3561L11.136 12.2441V7.83649ZM10.144 12.7645V17.5394C10.144 17.7537 10.08 19.9269 11.264 21.6716L8.928 20.4472V12.0911L10.144 12.7645ZM9.184 26.1404L14.944 29.1707C15.424 30.5481 16.512 31.65 18.08 32.7825C18.496 33.0886 18.976 33.3641 19.456 33.5783C16 33.1804 13.344 32.1091 11.52 30.3338C10.048 28.8646 9.408 27.2423 9.184 26.1404ZM26.0479 35.5373C25.3439 34.4966 23.9039 34.0987 22.4 33.7008C21.088 33.3334 19.712 32.9355 18.592 32.1397C15.744 30.0277 14.688 28.283 16.224 24.0897H35.8399C37.4079 28.283 36.3519 30.0277 33.4719 32.1397C32.3519 32.9661 31.0079 33.3334 29.6639 33.7008C28.1919 34.0681 26.7519 34.466 26.0479 35.5373ZM40.6719 30.3032C38.8159 32.1091 36.1279 33.211 32.6399 33.5783C33.1199 33.3641 33.5999 33.1192 34.0159 32.7825C35.5519 31.65 36.6399 30.5787 37.1199 29.2013C37.1519 29.2013 37.1839 29.1707 37.2159 29.1707L42.9759 26.1404C42.7519 27.2423 42.1439 28.8646 40.6719 30.3032Z" fill="white"/>
<path d="M25.9835 8.75442C28.6075 8.72381 30.6875 7.46885 30.6875 5.87721C30.6875 4.28556 28.6075 3 25.9835 3C23.3595 3 21.3115 4.25495 21.3115 5.8466C21.3115 7.46885 23.3595 8.72381 25.9835 8.75442ZM25.9835 4.0713C27.3275 4.0713 28.3195 4.59165 28.3195 5.23443C28.3195 5.72416 27.7755 6.15269 26.9435 6.33634C26.1435 6.58121 26.4315 6.85668 26.0155 7.10155C25.5995 6.85668 25.9195 6.58121 25.0875 6.33634C24.2235 6.15269 23.6795 5.72416 23.6795 5.23443C23.6795 4.59165 24.6715 4.0713 25.9835 4.0713Z" fill="white"/>
</svg>
