<svg width="12" height="47" viewBox="0 0 12 47" fill="none" xmlns="http://www.w3.org/2000/svg">
<path d="M8.4902 6.48313C8.4902 6.54706 8.49028 6.61151 8.49043 6.67648C8.48545 6.66719 8.48045 6.65791 8.47545 6.64863C8.35704 6.4131 8.23587 6.17485 8.11193 5.93389L8.11199 5.93385L8.10806 5.92651L5.97527 1.94434C5.86254 1.71492 5.7476 1.51254 5.62939 1.34217C5.50381 1.15553 5.35582 0.99159 5.18013 0.865722C5.01118 0.7407 4.82109 0.655657 4.61638 0.607513C4.41605 0.554956 4.19164 0.533742 3.95298 0.533742H2.75728C2.42362 0.533742 2.11359 0.636517 1.85678 0.855243C1.5591 1.10785 1.45166 1.46591 1.45166 1.82669V11.6373C1.45166 11.7819 1.48938 11.9257 1.57069 12.0551C1.67113 12.215 1.81917 12.307 1.93809 12.3616L1.95286 12.3684L1.96803 12.3742C2.09465 12.4226 2.24073 12.4515 2.38765 12.4705C2.54682 12.4912 2.7341 12.5 2.94384 12.5C3.15853 12.5 3.34888 12.4912 3.50851 12.4705C3.65543 12.4515 3.80151 12.4226 3.92813 12.3742L3.9369 12.3708L3.94554 12.3672C4.06082 12.318 4.21495 12.2318 4.32148 12.0742C4.4131 11.9461 4.46146 11.7958 4.46146 11.6373V5.92638C4.46146 5.89787 4.46144 5.86941 4.46139 5.84102L7.12168 10.8131C7.26601 11.1 7.40012 11.3437 7.52377 11.5405L7.52373 11.5406L7.52764 11.5466C7.65783 11.7473 7.80097 11.9245 7.96034 12.068L7.96957 12.0763L7.97921 12.0841C8.15196 12.2247 8.34565 12.3294 8.55924 12.3889L8.55923 12.3889L8.56405 12.3902C8.76365 12.4436 8.98144 12.4663 9.21068 12.4663H10.1605C10.3121 12.4663 10.4615 12.4463 10.6074 12.406L10.6158 12.4037L10.6241 12.4011C10.7896 12.3491 10.9443 12.2665 11.0769 12.1468C11.213 12.029 11.3163 11.885 11.3887 11.7231L10.9322 11.5192L11.3887 11.7231C11.467 11.5479 11.5 11.3613 11.5 11.1733V1.36273C11.5 1.21813 11.4623 1.0743 11.381 0.944887L11.381 0.944881C11.2823 0.787921 11.1378 0.696347 11.0201 0.641398C10.8749 0.570948 10.7106 0.541651 10.5619 0.528117C10.4057 0.508486 10.2251 0.5 10.0248 0.5C9.81482 0.5 9.62813 0.508371 9.4707 0.528113C9.31567 0.542218 9.1574 0.571968 9.0146 0.632844C8.89396 0.684274 8.7491 0.767615 8.64184 0.909877C8.54266 1.04142 8.4902 1.19765 8.4902 1.36273V6.48313Z" fill="white" stroke="#333333"/>
<path fill-rule="evenodd" clip-rule="evenodd" d="M6.5 46.8408C6.28535 46.8408 6.09911 46.6812 6.05085 46.4558L3.01181 32.2656C2.98023 32.1181 3.01278 31.9631 3.10023 31.8447C3.18768 31.7262 3.32049 31.6572 3.46096 31.6572L9.53904 31.6572C9.67952 31.6572 9.81232 31.7262 9.89977 31.8447C9.98723 31.9631 10.0198 32.1181 9.98819 32.2656L6.94915 46.4558C6.90089 46.6812 6.71465 46.8408 6.5 46.8408Z" fill="white"/>
<path fill-rule="evenodd" clip-rule="evenodd" d="M6.5 15.4609C6.71465 15.4609 6.90089 15.6312 6.94915 15.8716L9.98819 31.0079C10.0198 31.1652 9.98722 31.3305 9.89977 31.4568C9.81232 31.5832 9.67951 31.6568 9.53904 31.6568L3.46096 31.6568C3.32048 31.6568 3.18768 31.5832 3.10023 31.4568C3.01277 31.3305 2.98022 31.1652 3.01181 31.0079L6.05085 15.8716C6.09911 15.6312 6.28535 15.4609 6.5 15.4609Z" fill="#FF3535"/>
</svg>
