<svg width="15" height="14" viewBox="0 0 15 14" fill="none" xmlns="http://www.w3.org/2000/svg">
<path fill-rule="evenodd" clip-rule="evenodd" d="M2 5.21811C2 3.44125 3.44125 2 5.22015 2C6.99905 2 8.44033 3.44126 8.44033 5.21811C8.44033 6.99497 6.99905 8.43623 5.22015 8.43623C3.44125 8.43623 2 6.99498 2 5.21811ZM5.22015 0C2.33759 0 0 2.33577 0 5.21811C0 8.10045 2.33759 10.4362 5.22015 10.4362C6.29975 10.4362 7.30291 10.1086 8.13546 9.54729L12.2945 13.7044C12.6852 14.0948 13.3183 14.0946 13.7087 13.704C14.0992 13.3134 14.099 12.6802 13.7084 12.2898L9.55018 8.13359C10.1122 7.30122 10.4403 6.29803 10.4403 5.21811C10.4403 2.33576 8.10269 0 5.22015 0Z" fill="#828282"/>
</svg>
